<mxfile host="Electron" agent="Mozilla/5.0 (Windows NT 10.0; Win64; x64) AppleWebKit/537.36 (KHTML, like Gecko) draw.io/25.0.2 Chrome/128.0.6613.186 Electron/32.2.5 Safari/537.36" version="25.0.2">
  <diagram name="PÃ¡gina-1" id="2Pmj7SX_IjglksO4oQEG">
    <mxGraphModel dx="5750" dy="3956" grid="1" gridSize="10" guides="1" tooltips="1" connect="1" arrows="1" fold="1" page="1" pageScale="1" pageWidth="827" pageHeight="1169" math="0" shadow="0">
      <root>
        <mxCell id="0" />
        <mxCell id="1" parent="0" />
        <mxCell id="bZBiRagULBZc9RhgCNNF-1" value="&lt;b&gt;&lt;font style=&quot;font-size: 18px;&quot;&gt;Security Terms&lt;/font&gt;&lt;/b&gt;" style="rounded=1;whiteSpace=wrap;html=1;fillColor=#7D4023;fontColor=#ffffff;strokeColor=#6D1F00;" vertex="1" parent="1">
          <mxGeometry x="778" y="-415" width="120" height="60" as="geometry" />
        </mxCell>
        <mxCell id="bZBiRagULBZc9RhgCNNF-2" value="" style="endArrow=classic;html=1;rounded=0;exitX=0;exitY=0;exitDx=0;exitDy=0;entryX=1;entryY=1;entryDx=0;entryDy=0;" edge="1" parent="1" source="bZBiRagULBZc9RhgCNNF-1" target="bZBiRagULBZc9RhgCNNF-3">
          <mxGeometry width="50" height="50" relative="1" as="geometry">
            <mxPoint x="819" y="-300" as="sourcePoint" />
            <mxPoint x="659" y="-430" as="targetPoint" />
          </mxGeometry>
        </mxCell>
        <mxCell id="bZBiRagULBZc9RhgCNNF-3" value="&lt;b&gt;&lt;font style=&quot;font-size: 14px;&quot;&gt;Access Control&lt;/font&gt;&lt;/b&gt;" style="ellipse;whiteSpace=wrap;html=1;fillColor=#C46200;" vertex="1" parent="1">
          <mxGeometry x="600" y="-535" width="90" height="60" as="geometry" />
        </mxCell>
        <mxCell id="bZBiRagULBZc9RhgCNNF-5" value="" style="endArrow=classic;html=1;rounded=0;exitX=0;exitY=0;exitDx=0;exitDy=0;entryX=1;entryY=0.5;entryDx=0;entryDy=0;" edge="1" parent="1" source="bZBiRagULBZc9RhgCNNF-3" target="bZBiRagULBZc9RhgCNNF-6">
          <mxGeometry width="50" height="50" relative="1" as="geometry">
            <mxPoint x="739" y="-250" as="sourcePoint" />
            <mxPoint x="479" y="-470" as="targetPoint" />
          </mxGeometry>
        </mxCell>
        <mxCell id="bZBiRagULBZc9RhgCNNF-6" value="&lt;h1 style=&quot;margin-top: 0px;&quot;&gt;&lt;span style=&quot;background-color: initial; font-size: 12px; font-weight: normal;&quot;&gt;Mechanisms that limit access to resources or systems to only authorized users.&lt;/span&gt;&lt;br&gt;&lt;/h1&gt;" style="text;html=1;whiteSpace=wrap;overflow=hidden;rounded=0;" vertex="1" parent="1">
          <mxGeometry x="325" y="-610" width="244" height="75" as="geometry" />
        </mxCell>
        <mxCell id="bZBiRagULBZc9RhgCNNF-7" value="Ex" style="rhombus;whiteSpace=wrap;html=1;" vertex="1" parent="1">
          <mxGeometry x="475" y="-500" width="60" height="50" as="geometry" />
        </mxCell>
        <mxCell id="bZBiRagULBZc9RhgCNNF-8" value="" style="endArrow=classic;html=1;rounded=0;entryX=1;entryY=0.5;entryDx=0;entryDy=0;exitX=0;exitY=0.5;exitDx=0;exitDy=0;" edge="1" parent="1" source="bZBiRagULBZc9RhgCNNF-3" target="bZBiRagULBZc9RhgCNNF-7">
          <mxGeometry width="50" height="50" relative="1" as="geometry">
            <mxPoint x="709" y="-310" as="sourcePoint" />
            <mxPoint x="759" y="-360" as="targetPoint" />
          </mxGeometry>
        </mxCell>
        <mxCell id="bZBiRagULBZc9RhgCNNF-9" value="Passwords --&amp;gt; Biometric authentication systems, access cards" style="text;html=1;align=center;verticalAlign=middle;whiteSpace=wrap;rounded=0;" vertex="1" parent="1">
          <mxGeometry x="269" y="-510" width="150" height="70" as="geometry" />
        </mxCell>
        <mxCell id="bZBiRagULBZc9RhgCNNF-10" value="" style="endArrow=classic;html=1;rounded=0;entryX=1;entryY=0.5;entryDx=0;entryDy=0;exitX=0;exitY=0.5;exitDx=0;exitDy=0;" edge="1" parent="1" source="bZBiRagULBZc9RhgCNNF-7" target="bZBiRagULBZc9RhgCNNF-9">
          <mxGeometry width="50" height="50" relative="1" as="geometry">
            <mxPoint x="709" y="-310" as="sourcePoint" />
            <mxPoint x="759" y="-360" as="targetPoint" />
          </mxGeometry>
        </mxCell>
        <mxCell id="bZBiRagULBZc9RhgCNNF-12" value="" style="endArrow=classic;html=1;rounded=0;exitX=0;exitY=1;exitDx=0;exitDy=0;entryX=1;entryY=0.5;entryDx=0;entryDy=0;" edge="1" parent="1" source="bZBiRagULBZc9RhgCNNF-1" target="bZBiRagULBZc9RhgCNNF-13">
          <mxGeometry width="50" height="50" relative="1" as="geometry">
            <mxPoint x="853" y="-120" as="sourcePoint" />
            <mxPoint x="729" y="-120" as="targetPoint" />
          </mxGeometry>
        </mxCell>
        <mxCell id="bZBiRagULBZc9RhgCNNF-13" value="&lt;pre style=&quot;font-family: var(--ds-font-family-code); overflow: auto; padding: calc(var(--ds-md-zoom)*8px)calc(var(--ds-md-zoom)*12px); text-wrap: wrap; word-break: break-all; color: rgb(255, 255, 255); text-align: start; margin-top: 0px !important; margin-bottom: 0px !important;&quot;&gt;&lt;b style=&quot;&quot;&gt;&lt;font style=&quot;font-size: 14px;&quot;&gt;Confidentiality&lt;/font&gt;&lt;/b&gt;&lt;/pre&gt;" style="ellipse;whiteSpace=wrap;html=1;fillColor=#C46200;" vertex="1" parent="1">
          <mxGeometry x="535" y="-320" width="110" height="70" as="geometry" />
        </mxCell>
        <mxCell id="bZBiRagULBZc9RhgCNNF-14" value="" style="endArrow=classic;html=1;rounded=0;exitX=0;exitY=0.5;exitDx=0;exitDy=0;entryX=1;entryY=0.5;entryDx=0;entryDy=0;" edge="1" parent="1" source="bZBiRagULBZc9RhgCNNF-13" target="bZBiRagULBZc9RhgCNNF-15">
          <mxGeometry width="50" height="50" relative="1" as="geometry">
            <mxPoint x="809" y="60" as="sourcePoint" />
            <mxPoint x="549" y="-160" as="targetPoint" />
          </mxGeometry>
        </mxCell>
        <mxCell id="bZBiRagULBZc9RhgCNNF-15" value="&lt;h1 style=&quot;margin-top: 0px;&quot;&gt;&lt;span style=&quot;font-size: 12px; font-weight: 400;&quot;&gt;Ensure that information is only accessible to those authorized to see it&lt;/span&gt;&lt;br&gt;&lt;/h1&gt;" style="text;html=1;whiteSpace=wrap;overflow=hidden;rounded=0;" vertex="1" parent="1">
          <mxGeometry x="193" y="-310" width="214" height="70" as="geometry" />
        </mxCell>
        <mxCell id="bZBiRagULBZc9RhgCNNF-16" value="Ex" style="rhombus;whiteSpace=wrap;html=1;" vertex="1" parent="1">
          <mxGeometry x="460" y="-215" width="60" height="50" as="geometry" />
        </mxCell>
        <mxCell id="bZBiRagULBZc9RhgCNNF-17" value="" style="endArrow=classic;html=1;rounded=0;entryX=1;entryY=0;entryDx=0;entryDy=0;exitX=0;exitY=1;exitDx=0;exitDy=0;" edge="1" parent="1" source="bZBiRagULBZc9RhgCNNF-13" target="bZBiRagULBZc9RhgCNNF-16">
          <mxGeometry width="50" height="50" relative="1" as="geometry">
            <mxPoint x="779" as="sourcePoint" />
            <mxPoint x="829" y="-50" as="targetPoint" />
          </mxGeometry>
        </mxCell>
        <mxCell id="bZBiRagULBZc9RhgCNNF-18" value="Data encryption --&amp;gt; privacy policies" style="text;html=1;align=center;verticalAlign=middle;whiteSpace=wrap;rounded=0;" vertex="1" parent="1">
          <mxGeometry x="225" y="-215" width="150" height="50" as="geometry" />
        </mxCell>
        <mxCell id="bZBiRagULBZc9RhgCNNF-19" value="" style="endArrow=classic;html=1;rounded=0;entryX=1;entryY=0.5;entryDx=0;entryDy=0;exitX=0;exitY=0.5;exitDx=0;exitDy=0;" edge="1" parent="1" source="bZBiRagULBZc9RhgCNNF-16" target="bZBiRagULBZc9RhgCNNF-18">
          <mxGeometry width="50" height="50" relative="1" as="geometry">
            <mxPoint x="779" as="sourcePoint" />
            <mxPoint x="829" y="-50" as="targetPoint" />
          </mxGeometry>
        </mxCell>
        <mxCell id="bZBiRagULBZc9RhgCNNF-21" value="" style="endArrow=classic;html=1;rounded=0;exitX=1;exitY=0;exitDx=0;exitDy=0;entryX=0;entryY=1;entryDx=0;entryDy=0;" edge="1" parent="1" source="bZBiRagULBZc9RhgCNNF-1" target="bZBiRagULBZc9RhgCNNF-22">
          <mxGeometry width="50" height="50" relative="1" as="geometry">
            <mxPoint x="1173" y="-200" as="sourcePoint" />
            <mxPoint x="1049" y="-200" as="targetPoint" />
          </mxGeometry>
        </mxCell>
        <mxCell id="bZBiRagULBZc9RhgCNNF-22" value="&lt;b&gt;&lt;font style=&quot;font-size: 14px;&quot;&gt;Integrity&lt;/font&gt;&lt;/b&gt;" style="ellipse;whiteSpace=wrap;html=1;fillColor=#C46200;" vertex="1" parent="1">
          <mxGeometry x="957.28" y="-525" width="90" height="60" as="geometry" />
        </mxCell>
        <mxCell id="bZBiRagULBZc9RhgCNNF-23" value="" style="endArrow=classic;html=1;rounded=0;entryX=0;entryY=0.5;entryDx=0;entryDy=0;exitX=1;exitY=0.5;exitDx=0;exitDy=0;" edge="1" parent="1" source="bZBiRagULBZc9RhgCNNF-22" target="bZBiRagULBZc9RhgCNNF-24">
          <mxGeometry width="50" height="50" relative="1" as="geometry">
            <mxPoint x="999" y="-340" as="sourcePoint" />
            <mxPoint x="869" y="-240" as="targetPoint" />
          </mxGeometry>
        </mxCell>
        <mxCell id="bZBiRagULBZc9RhgCNNF-24" value="&lt;h1 style=&quot;margin-top: 0px;&quot;&gt;&lt;span style=&quot;font-size: 12px; font-weight: 400;&quot;&gt;Ensure that information is not altered or modified&lt;/span&gt;&lt;br&gt;&lt;/h1&gt;" style="text;html=1;whiteSpace=wrap;overflow=hidden;rounded=0;" vertex="1" parent="1">
          <mxGeometry x="1150" y="-590" width="180" height="80" as="geometry" />
        </mxCell>
        <mxCell id="bZBiRagULBZc9RhgCNNF-25" value="Ex" style="rhombus;whiteSpace=wrap;html=1;" vertex="1" parent="1">
          <mxGeometry x="1190" y="-510" width="60" height="50" as="geometry" />
        </mxCell>
        <mxCell id="bZBiRagULBZc9RhgCNNF-26" value="" style="endArrow=classic;html=1;rounded=0;exitX=1;exitY=1;exitDx=0;exitDy=0;entryX=0;entryY=0.5;entryDx=0;entryDy=0;" edge="1" parent="1" source="bZBiRagULBZc9RhgCNNF-22" target="bZBiRagULBZc9RhgCNNF-25">
          <mxGeometry width="50" height="50" relative="1" as="geometry">
            <mxPoint x="1039" y="-320" as="sourcePoint" />
            <mxPoint x="1139" y="-310" as="targetPoint" />
          </mxGeometry>
        </mxCell>
        <mxCell id="bZBiRagULBZc9RhgCNNF-27" value="Digital signatures--&amp;gt; version control systems" style="text;html=1;align=center;verticalAlign=middle;whiteSpace=wrap;rounded=0;" vertex="1" parent="1">
          <mxGeometry x="1307.5" y="-505" width="150" height="45" as="geometry" />
        </mxCell>
        <mxCell id="bZBiRagULBZc9RhgCNNF-28" value="" style="endArrow=classic;html=1;rounded=0;entryX=0;entryY=0.5;entryDx=0;entryDy=0;exitX=1;exitY=0.5;exitDx=0;exitDy=0;" edge="1" parent="1" source="bZBiRagULBZc9RhgCNNF-25" target="bZBiRagULBZc9RhgCNNF-27">
          <mxGeometry width="50" height="50" relative="1" as="geometry">
            <mxPoint x="1099" y="-80" as="sourcePoint" />
            <mxPoint x="1149" y="-130" as="targetPoint" />
          </mxGeometry>
        </mxCell>
        <mxCell id="bZBiRagULBZc9RhgCNNF-30" value="" style="endArrow=classic;html=1;rounded=0;exitX=1;exitY=1;exitDx=0;exitDy=0;entryX=0;entryY=0.5;entryDx=0;entryDy=0;" edge="1" parent="1" target="bZBiRagULBZc9RhgCNNF-31" source="bZBiRagULBZc9RhgCNNF-1">
          <mxGeometry width="50" height="50" relative="1" as="geometry">
            <mxPoint x="903" y="-275" as="sourcePoint" />
            <mxPoint x="1049" y="-45" as="targetPoint" />
          </mxGeometry>
        </mxCell>
        <mxCell id="bZBiRagULBZc9RhgCNNF-31" value="&lt;b&gt;&lt;font style=&quot;font-size: 14px;&quot;&gt;Public Key&amp;nbsp;&lt;/font&gt;&lt;/b&gt;&lt;div&gt;&lt;b&gt;&lt;font size=&quot;3&quot;&gt;Infraestructure(PKI)&lt;/font&gt;&lt;/b&gt;&lt;/div&gt;" style="ellipse;whiteSpace=wrap;html=1;fillColor=#C46200;" vertex="1" parent="1">
          <mxGeometry x="1010" y="-325" width="170" height="80" as="geometry" />
        </mxCell>
        <mxCell id="bZBiRagULBZc9RhgCNNF-32" value="" style="endArrow=classic;html=1;rounded=0;entryX=0;entryY=0.5;entryDx=0;entryDy=0;exitX=1;exitY=0.5;exitDx=0;exitDy=0;" edge="1" parent="1" source="bZBiRagULBZc9RhgCNNF-31" target="bZBiRagULBZc9RhgCNNF-33">
          <mxGeometry width="50" height="50" relative="1" as="geometry">
            <mxPoint x="999" y="-185" as="sourcePoint" />
            <mxPoint x="869" y="-85" as="targetPoint" />
          </mxGeometry>
        </mxCell>
        <mxCell id="bZBiRagULBZc9RhgCNNF-33" value="&lt;h1 style=&quot;margin-top: 0px;&quot;&gt;&lt;span style=&quot;font-size: 12px; font-weight: 400;&quot;&gt;Public and private key management system&lt;/span&gt;&lt;br&gt;&lt;/h1&gt;" style="text;html=1;whiteSpace=wrap;overflow=hidden;rounded=0;" vertex="1" parent="1">
          <mxGeometry x="1305" y="-310" width="239" height="50" as="geometry" />
        </mxCell>
        <mxCell id="bZBiRagULBZc9RhgCNNF-34" value="Ex" style="rhombus;whiteSpace=wrap;html=1;" vertex="1" parent="1">
          <mxGeometry x="1245" y="-240" width="60" height="50" as="geometry" />
        </mxCell>
        <mxCell id="bZBiRagULBZc9RhgCNNF-35" value="" style="endArrow=classic;html=1;rounded=0;exitX=1;exitY=1;exitDx=0;exitDy=0;entryX=0;entryY=0.5;entryDx=0;entryDy=0;" edge="1" parent="1" source="bZBiRagULBZc9RhgCNNF-31" target="bZBiRagULBZc9RhgCNNF-34">
          <mxGeometry width="50" height="50" relative="1" as="geometry">
            <mxPoint x="1039" y="-165" as="sourcePoint" />
            <mxPoint x="1235" y="-215" as="targetPoint" />
          </mxGeometry>
        </mxCell>
        <mxCell id="bZBiRagULBZc9RhgCNNF-36" value="SSL/TLS certificates for secure websites" style="text;html=1;align=center;verticalAlign=middle;whiteSpace=wrap;rounded=0;" vertex="1" parent="1">
          <mxGeometry x="1375" y="-245" width="130" height="60" as="geometry" />
        </mxCell>
        <mxCell id="bZBiRagULBZc9RhgCNNF-37" value="" style="endArrow=classic;html=1;rounded=0;entryX=0;entryY=0.5;entryDx=0;entryDy=0;exitX=1;exitY=0.5;exitDx=0;exitDy=0;" edge="1" parent="1" source="bZBiRagULBZc9RhgCNNF-34" target="bZBiRagULBZc9RhgCNNF-36">
          <mxGeometry width="50" height="50" relative="1" as="geometry">
            <mxPoint x="1099" y="75" as="sourcePoint" />
            <mxPoint x="1149" y="25" as="targetPoint" />
          </mxGeometry>
        </mxCell>
        <mxCell id="bZBiRagULBZc9RhgCNNF-104" value="&lt;b&gt;&lt;font style=&quot;font-size: 18px;&quot;&gt;Common Threats&lt;/font&gt;&lt;/b&gt;" style="rounded=1;whiteSpace=wrap;html=1;fillColor=#a20025;strokeColor=#6F0000;fontColor=#ffffff;" vertex="1" parent="1">
          <mxGeometry x="210" y="310" width="120" height="60" as="geometry" />
        </mxCell>
        <mxCell id="bZBiRagULBZc9RhgCNNF-105" value="" style="endArrow=classic;html=1;rounded=0;exitX=0;exitY=0;exitDx=0;exitDy=0;entryX=1;entryY=0.5;entryDx=0;entryDy=0;" edge="1" parent="1" source="bZBiRagULBZc9RhgCNNF-104" target="bZBiRagULBZc9RhgCNNF-106">
          <mxGeometry width="50" height="50" relative="1" as="geometry">
            <mxPoint x="230" y="380" as="sourcePoint" />
            <mxPoint x="110" y="240" as="targetPoint" />
          </mxGeometry>
        </mxCell>
        <mxCell id="bZBiRagULBZc9RhgCNNF-106" value="&lt;pre style=&quot;font-family: var(--ds-font-family-code); overflow: auto; padding: calc(var(--ds-md-zoom)*8px)calc(var(--ds-md-zoom)*12px); text-wrap: wrap; word-break: break-all; color: rgb(255, 255, 255); text-align: start; margin-top: 0px !important; margin-bottom: 0px !important;&quot;&gt;&lt;font style=&quot;font-size: 14px;&quot;&gt;&lt;b&gt;Virus&lt;/b&gt;&lt;/font&gt;&lt;/pre&gt;" style="ellipse;whiteSpace=wrap;html=1;fillColor=#FF9999;fontColor=#ffffff;strokeColor=#B20000;" vertex="1" parent="1">
          <mxGeometry x="30" y="205" width="90" height="60" as="geometry" />
        </mxCell>
        <mxCell id="bZBiRagULBZc9RhgCNNF-107" value="" style="endArrow=classic;html=1;rounded=0;exitX=0;exitY=0;exitDx=0;exitDy=0;entryX=1;entryY=0.5;entryDx=0;entryDy=0;" edge="1" parent="1" source="bZBiRagULBZc9RhgCNNF-106" target="bZBiRagULBZc9RhgCNNF-108">
          <mxGeometry width="50" height="50" relative="1" as="geometry">
            <mxPoint x="150" y="430" as="sourcePoint" />
            <mxPoint x="-110" y="210" as="targetPoint" />
          </mxGeometry>
        </mxCell>
        <mxCell id="bZBiRagULBZc9RhgCNNF-108" value="&lt;h1 style=&quot;margin-top: 0px;&quot;&gt;&lt;span style=&quot;font-size: 12px; font-weight: 400;&quot;&gt;Malicious software that infects files&lt;/span&gt;&lt;br&gt;&lt;/h1&gt;" style="text;html=1;whiteSpace=wrap;overflow=hidden;rounded=0;" vertex="1" parent="1">
          <mxGeometry x="-260" y="125" width="120" height="75" as="geometry" />
        </mxCell>
        <mxCell id="bZBiRagULBZc9RhgCNNF-109" value="Ex" style="rhombus;whiteSpace=wrap;html=1;" vertex="1" parent="1">
          <mxGeometry x="-120" y="235" width="60" height="50" as="geometry" />
        </mxCell>
        <mxCell id="bZBiRagULBZc9RhgCNNF-110" value="" style="endArrow=classic;html=1;rounded=0;entryX=1;entryY=0.5;entryDx=0;entryDy=0;exitX=0;exitY=1;exitDx=0;exitDy=0;" edge="1" parent="1" source="bZBiRagULBZc9RhgCNNF-106" target="bZBiRagULBZc9RhgCNNF-109">
          <mxGeometry width="50" height="50" relative="1" as="geometry">
            <mxPoint x="120" y="370" as="sourcePoint" />
            <mxPoint x="170" y="320" as="targetPoint" />
          </mxGeometry>
        </mxCell>
        <mxCell id="bZBiRagULBZc9RhgCNNF-111" value="Email attachment" style="text;html=1;align=center;verticalAlign=middle;whiteSpace=wrap;rounded=0;" vertex="1" parent="1">
          <mxGeometry x="-290" y="240" width="130" height="35" as="geometry" />
        </mxCell>
        <mxCell id="bZBiRagULBZc9RhgCNNF-112" value="" style="endArrow=classic;html=1;rounded=0;entryX=1;entryY=0.5;entryDx=0;entryDy=0;exitX=0;exitY=0.5;exitDx=0;exitDy=0;" edge="1" parent="1" source="bZBiRagULBZc9RhgCNNF-109" target="bZBiRagULBZc9RhgCNNF-111">
          <mxGeometry width="50" height="50" relative="1" as="geometry">
            <mxPoint x="120" y="370" as="sourcePoint" />
            <mxPoint x="170" y="320" as="targetPoint" />
          </mxGeometry>
        </mxCell>
        <mxCell id="bZBiRagULBZc9RhgCNNF-113" value="" style="endArrow=classic;html=1;rounded=0;exitX=0;exitY=1;exitDx=0;exitDy=0;entryX=1;entryY=0.5;entryDx=0;entryDy=0;" edge="1" parent="1" source="bZBiRagULBZc9RhgCNNF-104" target="bZBiRagULBZc9RhgCNNF-114">
          <mxGeometry width="50" height="50" relative="1" as="geometry">
            <mxPoint x="264" y="560" as="sourcePoint" />
            <mxPoint x="140" y="560" as="targetPoint" />
          </mxGeometry>
        </mxCell>
        <mxCell id="bZBiRagULBZc9RhgCNNF-114" value="&lt;pre style=&quot;font-family: var(--ds-font-family-code); overflow: auto; padding: calc(var(--ds-md-zoom)*8px)calc(var(--ds-md-zoom)*12px); text-wrap: wrap; word-break: break-all; color: rgb(255, 255, 255); text-align: start; margin-top: 0px !important; margin-bottom: 0px !important;&quot;&gt;&lt;pre style=&quot;font-family: var(--ds-font-family-code); overflow: auto; padding: calc(var(--ds-md-zoom)*8px)calc(var(--ds-md-zoom)*12px); text-wrap: wrap; word-break: break-all; margin-top: 0px !important; margin-bottom: 0px !important;&quot;&gt;&lt;font style=&quot;font-size: 14px;&quot;&gt;&lt;b&gt;QL Injection&lt;/b&gt;&lt;/font&gt;&lt;/pre&gt;&lt;/pre&gt;" style="ellipse;whiteSpace=wrap;html=1;fillColor=#FF9999;" vertex="1" parent="1">
          <mxGeometry x="25" y="385" width="100" height="70" as="geometry" />
        </mxCell>
        <mxCell id="bZBiRagULBZc9RhgCNNF-115" value="" style="endArrow=classic;html=1;rounded=0;exitX=0;exitY=0.5;exitDx=0;exitDy=0;entryX=1;entryY=0.5;entryDx=0;entryDy=0;" edge="1" parent="1" source="bZBiRagULBZc9RhgCNNF-114" target="bZBiRagULBZc9RhgCNNF-116">
          <mxGeometry width="50" height="50" relative="1" as="geometry">
            <mxPoint x="270" y="817.5" as="sourcePoint" />
            <mxPoint x="10" y="597.5" as="targetPoint" />
          </mxGeometry>
        </mxCell>
        <mxCell id="bZBiRagULBZc9RhgCNNF-116" value="&lt;h1 style=&quot;margin-top: 0px;&quot;&gt;&lt;span style=&quot;font-size: 12px; font-weight: 400;&quot;&gt;Attack that manipulates databases&lt;/span&gt;&lt;br&gt;&lt;/h1&gt;" style="text;html=1;whiteSpace=wrap;overflow=hidden;rounded=0;" vertex="1" parent="1">
          <mxGeometry x="-250" y="467.5" width="190" height="50" as="geometry" />
        </mxCell>
        <mxCell id="bZBiRagULBZc9RhgCNNF-117" value="Ex" style="rhombus;whiteSpace=wrap;html=1;" vertex="1" parent="1">
          <mxGeometry x="-70" y="547.5" width="60" height="50" as="geometry" />
        </mxCell>
        <mxCell id="bZBiRagULBZc9RhgCNNF-118" value="" style="endArrow=classic;html=1;rounded=0;entryX=1;entryY=0.5;entryDx=0;entryDy=0;exitX=0;exitY=1;exitDx=0;exitDy=0;" edge="1" parent="1" source="bZBiRagULBZc9RhgCNNF-114" target="bZBiRagULBZc9RhgCNNF-117">
          <mxGeometry width="50" height="50" relative="1" as="geometry">
            <mxPoint x="240" y="757.5" as="sourcePoint" />
            <mxPoint x="290" y="707.5" as="targetPoint" />
          </mxGeometry>
        </mxCell>
        <mxCell id="bZBiRagULBZc9RhgCNNF-119" value="Inserting SQL code into web forms" style="text;html=1;align=center;verticalAlign=middle;whiteSpace=wrap;rounded=0;" vertex="1" parent="1">
          <mxGeometry x="-240" y="542.5" width="130" height="60" as="geometry" />
        </mxCell>
        <mxCell id="bZBiRagULBZc9RhgCNNF-120" value="" style="endArrow=classic;html=1;rounded=0;entryX=1;entryY=0.5;entryDx=0;entryDy=0;exitX=0;exitY=0.5;exitDx=0;exitDy=0;" edge="1" parent="1" source="bZBiRagULBZc9RhgCNNF-117" target="bZBiRagULBZc9RhgCNNF-119">
          <mxGeometry width="50" height="50" relative="1" as="geometry">
            <mxPoint x="240" y="757.5" as="sourcePoint" />
            <mxPoint x="290" y="707.5" as="targetPoint" />
          </mxGeometry>
        </mxCell>
        <mxCell id="bZBiRagULBZc9RhgCNNF-121" value="" style="endArrow=classic;html=1;rounded=0;exitX=1;exitY=0;exitDx=0;exitDy=0;entryX=0;entryY=0.5;entryDx=0;entryDy=0;" edge="1" parent="1" source="bZBiRagULBZc9RhgCNNF-104" target="bZBiRagULBZc9RhgCNNF-122">
          <mxGeometry width="50" height="50" relative="1" as="geometry">
            <mxPoint x="584" y="480" as="sourcePoint" />
            <mxPoint x="460" y="480" as="targetPoint" />
          </mxGeometry>
        </mxCell>
        <mxCell id="bZBiRagULBZc9RhgCNNF-122" value="&lt;pre style=&quot;font-family: var(--ds-font-family-code); overflow: auto; padding: calc(var(--ds-md-zoom)*8px)calc(var(--ds-md-zoom)*12px); text-wrap: wrap; word-break: break-all; color: rgb(255, 255, 255); text-align: start; margin-top: 0px !important; margin-bottom: 0px !important;&quot;&gt;&lt;font style=&quot;font-size: 14px;&quot;&gt;&lt;b&gt;Insider Threat&lt;/b&gt;&lt;/font&gt;&lt;/pre&gt;" style="ellipse;whiteSpace=wrap;html=1;fillColor=#FF9999;" vertex="1" parent="1">
          <mxGeometry x="410" y="210" width="110" height="60" as="geometry" />
        </mxCell>
        <mxCell id="bZBiRagULBZc9RhgCNNF-123" value="" style="endArrow=classic;html=1;rounded=0;entryX=0;entryY=0.5;entryDx=0;entryDy=0;exitX=1;exitY=0.5;exitDx=0;exitDy=0;" edge="1" parent="1" source="bZBiRagULBZc9RhgCNNF-122" target="bZBiRagULBZc9RhgCNNF-124">
          <mxGeometry width="50" height="50" relative="1" as="geometry">
            <mxPoint x="410" y="340" as="sourcePoint" />
            <mxPoint x="280" y="440" as="targetPoint" />
          </mxGeometry>
        </mxCell>
        <mxCell id="bZBiRagULBZc9RhgCNNF-124" value="&lt;h1 style=&quot;margin-top: 0px;&quot;&gt;&lt;span style=&quot;font-size: 12px; font-weight: 400;&quot;&gt;Risk coming from within the organization&lt;/span&gt;&lt;br&gt;&lt;/h1&gt;" style="text;html=1;whiteSpace=wrap;overflow=hidden;rounded=0;" vertex="1" parent="1">
          <mxGeometry x="614" y="165" width="223" height="55" as="geometry" />
        </mxCell>
        <mxCell id="bZBiRagULBZc9RhgCNNF-125" value="Ex" style="rhombus;whiteSpace=wrap;html=1;" vertex="1" parent="1">
          <mxGeometry x="597" y="232.5" width="60" height="50" as="geometry" />
        </mxCell>
        <mxCell id="bZBiRagULBZc9RhgCNNF-126" value="" style="endArrow=classic;html=1;rounded=0;exitX=1;exitY=1;exitDx=0;exitDy=0;entryX=0;entryY=0.5;entryDx=0;entryDy=0;" edge="1" parent="1" source="bZBiRagULBZc9RhgCNNF-122" target="bZBiRagULBZc9RhgCNNF-125">
          <mxGeometry width="50" height="50" relative="1" as="geometry">
            <mxPoint x="450" y="360" as="sourcePoint" />
            <mxPoint x="550" y="370" as="targetPoint" />
          </mxGeometry>
        </mxCell>
        <mxCell id="bZBiRagULBZc9RhgCNNF-127" value="Employee stealing confidential information" style="text;html=1;align=center;verticalAlign=middle;whiteSpace=wrap;rounded=0;" vertex="1" parent="1">
          <mxGeometry x="690" y="230" width="140" height="55" as="geometry" />
        </mxCell>
        <mxCell id="bZBiRagULBZc9RhgCNNF-128" value="" style="endArrow=classic;html=1;rounded=0;entryX=0;entryY=0.5;entryDx=0;entryDy=0;exitX=1;exitY=0.5;exitDx=0;exitDy=0;" edge="1" parent="1" source="bZBiRagULBZc9RhgCNNF-125" target="bZBiRagULBZc9RhgCNNF-127">
          <mxGeometry width="50" height="50" relative="1" as="geometry">
            <mxPoint x="510" y="600" as="sourcePoint" />
            <mxPoint x="560" y="550" as="targetPoint" />
          </mxGeometry>
        </mxCell>
        <mxCell id="bZBiRagULBZc9RhgCNNF-129" value="" style="endArrow=classic;html=1;rounded=0;exitX=1;exitY=1;exitDx=0;exitDy=0;entryX=0;entryY=0.5;entryDx=0;entryDy=0;" edge="1" parent="1" source="bZBiRagULBZc9RhgCNNF-104" target="bZBiRagULBZc9RhgCNNF-130">
          <mxGeometry width="50" height="50" relative="1" as="geometry">
            <mxPoint x="314" y="405" as="sourcePoint" />
            <mxPoint x="460" y="635" as="targetPoint" />
          </mxGeometry>
        </mxCell>
        <mxCell id="bZBiRagULBZc9RhgCNNF-130" value="&lt;pre style=&quot;font-family: var(--ds-font-family-code); overflow: auto; padding: calc(var(--ds-md-zoom)*8px)calc(var(--ds-md-zoom)*12px); text-wrap: wrap; word-break: break-all; color: rgb(255, 255, 255); text-align: start; margin-top: 0px !important; margin-bottom: 0px !important;&quot;&gt;&lt;font style=&quot;font-size: 14px;&quot;&gt;&lt;b&gt;Zero-Day Exploit&lt;/b&gt;&lt;/font&gt;&lt;/pre&gt;" style="ellipse;whiteSpace=wrap;html=1;fillColor=#FF9999;" vertex="1" parent="1">
          <mxGeometry x="396" y="392.5" width="124" height="55" as="geometry" />
        </mxCell>
        <mxCell id="bZBiRagULBZc9RhgCNNF-131" value="" style="endArrow=classic;html=1;rounded=0;entryX=0;entryY=0.5;entryDx=0;entryDy=0;exitX=1;exitY=0.5;exitDx=0;exitDy=0;" edge="1" parent="1" source="bZBiRagULBZc9RhgCNNF-130" target="bZBiRagULBZc9RhgCNNF-132">
          <mxGeometry width="50" height="50" relative="1" as="geometry">
            <mxPoint x="528.2800000000027" y="482.5" as="sourcePoint" />
            <mxPoint x="254.27999999999997" y="655" as="targetPoint" />
          </mxGeometry>
        </mxCell>
        <mxCell id="bZBiRagULBZc9RhgCNNF-132" value="&lt;h1 style=&quot;margin-top: 0px;&quot;&gt;&lt;span style=&quot;font-size: 12px; font-weight: 400;&quot;&gt;Attack that exploits unpatched vulnerabilities&lt;/span&gt;&lt;br&gt;&lt;/h1&gt;" style="text;html=1;whiteSpace=wrap;overflow=hidden;rounded=0;" vertex="1" parent="1">
          <mxGeometry x="594.28" y="450" width="253" height="50" as="geometry" />
        </mxCell>
        <mxCell id="bZBiRagULBZc9RhgCNNF-133" value="Ex" style="rhombus;whiteSpace=wrap;html=1;" vertex="1" parent="1">
          <mxGeometry x="494" y="505" width="60" height="50" as="geometry" />
        </mxCell>
        <mxCell id="bZBiRagULBZc9RhgCNNF-134" value="" style="endArrow=classic;html=1;rounded=0;exitX=0.5;exitY=1;exitDx=0;exitDy=0;entryX=0;entryY=0;entryDx=0;entryDy=0;" edge="1" parent="1" source="bZBiRagULBZc9RhgCNNF-130" target="bZBiRagULBZc9RhgCNNF-133">
          <mxGeometry width="50" height="50" relative="1" as="geometry">
            <mxPoint x="510.0022928183555" y="501.9977792298073" as="sourcePoint" />
            <mxPoint x="524.28" y="585" as="targetPoint" />
          </mxGeometry>
        </mxCell>
        <mxCell id="bZBiRagULBZc9RhgCNNF-135" value="Exploitation of a flaw in an operating system" style="text;html=1;align=center;verticalAlign=middle;whiteSpace=wrap;rounded=0;" vertex="1" parent="1">
          <mxGeometry x="643" y="500" width="130" height="60" as="geometry" />
        </mxCell>
        <mxCell id="bZBiRagULBZc9RhgCNNF-136" value="" style="endArrow=classic;html=1;rounded=0;entryX=0;entryY=0.5;entryDx=0;entryDy=0;exitX=1;exitY=0.5;exitDx=0;exitDy=0;" edge="1" parent="1" source="bZBiRagULBZc9RhgCNNF-133" target="bZBiRagULBZc9RhgCNNF-135">
          <mxGeometry width="50" height="50" relative="1" as="geometry">
            <mxPoint x="484.28" y="815" as="sourcePoint" />
            <mxPoint x="534.28" y="765" as="targetPoint" />
          </mxGeometry>
        </mxCell>
        <mxCell id="bZBiRagULBZc9RhgCNNF-138" value="&lt;b&gt;&lt;font style=&quot;font-size: 18px;&quot;&gt;Protective Measures&lt;/font&gt;&lt;/b&gt;" style="rounded=1;whiteSpace=wrap;html=1;fillColor=#008a00;fontColor=#ffffff;strokeColor=#005700;" vertex="1" parent="1">
          <mxGeometry x="1430" y="325" width="120" height="60" as="geometry" />
        </mxCell>
        <mxCell id="bZBiRagULBZc9RhgCNNF-139" value="" style="endArrow=classic;html=1;rounded=0;exitX=0;exitY=0;exitDx=0;exitDy=0;entryX=1;entryY=1;entryDx=0;entryDy=0;" edge="1" parent="1" source="bZBiRagULBZc9RhgCNNF-138" target="bZBiRagULBZc9RhgCNNF-140">
          <mxGeometry width="50" height="50" relative="1" as="geometry">
            <mxPoint x="1450" y="395" as="sourcePoint" />
            <mxPoint x="1330" y="255" as="targetPoint" />
          </mxGeometry>
        </mxCell>
        <mxCell id="bZBiRagULBZc9RhgCNNF-140" value="&lt;pre style=&quot;font-family: var(--ds-font-family-code); overflow: auto; padding: calc(var(--ds-md-zoom)*8px)calc(var(--ds-md-zoom)*12px); text-wrap: wrap; word-break: break-all; color: rgb(255, 255, 255); text-align: start; margin-top: 0px !important; margin-bottom: 0px !important;&quot;&gt;&lt;font style=&quot;font-size: 14px;&quot;&gt;&lt;b&gt;Authentication&lt;/b&gt;&lt;/font&gt;&lt;/pre&gt;" style="ellipse;whiteSpace=wrap;html=1;fillColor=#7AAD46;" vertex="1" parent="1">
          <mxGeometry x="1260" y="140" width="110" height="65" as="geometry" />
        </mxCell>
        <mxCell id="bZBiRagULBZc9RhgCNNF-141" value="" style="endArrow=classic;html=1;rounded=0;exitX=0;exitY=0;exitDx=0;exitDy=0;entryX=1;entryY=0.5;entryDx=0;entryDy=0;" edge="1" parent="1" source="bZBiRagULBZc9RhgCNNF-140" target="bZBiRagULBZc9RhgCNNF-142">
          <mxGeometry width="50" height="50" relative="1" as="geometry">
            <mxPoint x="1370" y="445" as="sourcePoint" />
            <mxPoint x="1110" y="225" as="targetPoint" />
          </mxGeometry>
        </mxCell>
        <mxCell id="bZBiRagULBZc9RhgCNNF-142" value="&lt;h1 style=&quot;margin-top: 0px;&quot;&gt;&lt;span style=&quot;font-size: 12px; font-weight: 400;&quot;&gt;Identity verification&lt;/span&gt;&lt;br&gt;&lt;/h1&gt;" style="text;html=1;whiteSpace=wrap;overflow=hidden;rounded=0;" vertex="1" parent="1">
          <mxGeometry x="1075" y="100" width="110" height="55" as="geometry" />
        </mxCell>
        <mxCell id="bZBiRagULBZc9RhgCNNF-143" value="Ex" style="rhombus;whiteSpace=wrap;html=1;" vertex="1" parent="1">
          <mxGeometry x="1165" y="167.5" width="60" height="50" as="geometry" />
        </mxCell>
        <mxCell id="bZBiRagULBZc9RhgCNNF-144" value="" style="endArrow=classic;html=1;rounded=0;entryX=1;entryY=0.5;entryDx=0;entryDy=0;exitX=0;exitY=0.5;exitDx=0;exitDy=0;" edge="1" parent="1" source="bZBiRagULBZc9RhgCNNF-140" target="bZBiRagULBZc9RhgCNNF-143">
          <mxGeometry width="50" height="50" relative="1" as="geometry">
            <mxPoint x="1340" y="385" as="sourcePoint" />
            <mxPoint x="1390" y="335" as="targetPoint" />
          </mxGeometry>
        </mxCell>
        <mxCell id="bZBiRagULBZc9RhgCNNF-145" value="Passwords--&amp;gt; two-factor authentication (2FA)" style="text;html=1;align=center;verticalAlign=middle;whiteSpace=wrap;rounded=0;" vertex="1" parent="1">
          <mxGeometry x="940" y="172.5" width="140" height="45" as="geometry" />
        </mxCell>
        <mxCell id="bZBiRagULBZc9RhgCNNF-146" value="" style="endArrow=classic;html=1;rounded=0;entryX=1;entryY=0.5;entryDx=0;entryDy=0;exitX=0;exitY=0.5;exitDx=0;exitDy=0;" edge="1" parent="1" source="bZBiRagULBZc9RhgCNNF-143" target="bZBiRagULBZc9RhgCNNF-145">
          <mxGeometry width="50" height="50" relative="1" as="geometry">
            <mxPoint x="1340" y="385" as="sourcePoint" />
            <mxPoint x="1050" y="330" as="targetPoint" />
          </mxGeometry>
        </mxCell>
        <mxCell id="bZBiRagULBZc9RhgCNNF-147" value="" style="endArrow=classic;html=1;rounded=0;exitX=0;exitY=1;exitDx=0;exitDy=0;entryX=1;entryY=0.5;entryDx=0;entryDy=0;" edge="1" parent="1" source="bZBiRagULBZc9RhgCNNF-138" target="bZBiRagULBZc9RhgCNNF-148">
          <mxGeometry width="50" height="50" relative="1" as="geometry">
            <mxPoint x="1484" y="575" as="sourcePoint" />
            <mxPoint x="1360" y="575" as="targetPoint" />
          </mxGeometry>
        </mxCell>
        <mxCell id="bZBiRagULBZc9RhgCNNF-148" value="&lt;pre style=&quot;font-family: var(--ds-font-family-code); overflow: auto; padding: calc(var(--ds-md-zoom)*8px)calc(var(--ds-md-zoom)*12px); text-wrap: wrap; word-break: break-all; color: rgb(255, 255, 255); text-align: start; margin-top: 0px !important; margin-bottom: 0px !important;&quot;&gt;&lt;pre style=&quot;font-family: var(--ds-font-family-code); overflow: auto; padding: calc(var(--ds-md-zoom)*8px)calc(var(--ds-md-zoom)*12px); text-wrap: wrap; word-break: break-all; margin-top: 0px !important; margin-bottom: 0px !important;&quot;&gt;&lt;font style=&quot;font-size: 14px;&quot;&gt;&lt;b&gt;Antivirus Software&lt;/b&gt;&lt;/font&gt;&lt;/pre&gt;&lt;/pre&gt;" style="ellipse;whiteSpace=wrap;html=1;fillColor=#7AAD46;" vertex="1" parent="1">
          <mxGeometry x="1225" y="395" width="135" height="65" as="geometry" />
        </mxCell>
        <mxCell id="bZBiRagULBZc9RhgCNNF-149" value="" style="endArrow=classic;html=1;rounded=0;exitX=0;exitY=0.5;exitDx=0;exitDy=0;entryX=1;entryY=0.5;entryDx=0;entryDy=0;" edge="1" parent="1" source="bZBiRagULBZc9RhgCNNF-148" target="bZBiRagULBZc9RhgCNNF-150">
          <mxGeometry width="50" height="50" relative="1" as="geometry">
            <mxPoint x="1440" y="755" as="sourcePoint" />
            <mxPoint x="1180" y="535" as="targetPoint" />
          </mxGeometry>
        </mxCell>
        <mxCell id="bZBiRagULBZc9RhgCNNF-150" value="&lt;h1 style=&quot;margin-top: 0px;&quot;&gt;&lt;span style=&quot;font-size: 12px; font-weight: 400;&quot;&gt;Malware detection and removal&lt;/span&gt;&lt;br&gt;&lt;/h1&gt;" style="text;html=1;whiteSpace=wrap;overflow=hidden;rounded=0;" vertex="1" parent="1">
          <mxGeometry x="980" y="400" width="170" height="50" as="geometry" />
        </mxCell>
        <mxCell id="bZBiRagULBZc9RhgCNNF-151" value="Ex" style="rhombus;whiteSpace=wrap;html=1;" vertex="1" parent="1">
          <mxGeometry x="1130" y="497.5" width="60" height="50" as="geometry" />
        </mxCell>
        <mxCell id="bZBiRagULBZc9RhgCNNF-152" value="" style="endArrow=classic;html=1;rounded=0;entryX=1;entryY=0;entryDx=0;entryDy=0;exitX=0;exitY=1;exitDx=0;exitDy=0;" edge="1" parent="1" source="bZBiRagULBZc9RhgCNNF-148" target="bZBiRagULBZc9RhgCNNF-151">
          <mxGeometry width="50" height="50" relative="1" as="geometry">
            <mxPoint x="1410" y="695" as="sourcePoint" />
            <mxPoint x="1460" y="645" as="targetPoint" />
          </mxGeometry>
        </mxCell>
        <mxCell id="bZBiRagULBZc9RhgCNNF-153" value="Norton, McAfee, Windows Defender" style="text;html=1;align=center;verticalAlign=middle;whiteSpace=wrap;rounded=0;" vertex="1" parent="1">
          <mxGeometry x="940" y="480" width="130" height="60" as="geometry" />
        </mxCell>
        <mxCell id="bZBiRagULBZc9RhgCNNF-154" value="" style="endArrow=classic;html=1;rounded=0;entryX=1;entryY=0.5;entryDx=0;entryDy=0;exitX=0;exitY=0.5;exitDx=0;exitDy=0;" edge="1" parent="1" source="bZBiRagULBZc9RhgCNNF-151" target="bZBiRagULBZc9RhgCNNF-153">
          <mxGeometry width="50" height="50" relative="1" as="geometry">
            <mxPoint x="1410" y="695" as="sourcePoint" />
            <mxPoint x="1460" y="645" as="targetPoint" />
          </mxGeometry>
        </mxCell>
        <mxCell id="bZBiRagULBZc9RhgCNNF-155" value="" style="endArrow=classic;html=1;rounded=0;exitX=1;exitY=0;exitDx=0;exitDy=0;entryX=0;entryY=1;entryDx=0;entryDy=0;" edge="1" parent="1" source="bZBiRagULBZc9RhgCNNF-138" target="bZBiRagULBZc9RhgCNNF-156">
          <mxGeometry width="50" height="50" relative="1" as="geometry">
            <mxPoint x="1804" y="495" as="sourcePoint" />
            <mxPoint x="1640" y="240" as="targetPoint" />
          </mxGeometry>
        </mxCell>
        <mxCell id="bZBiRagULBZc9RhgCNNF-156" value="&lt;pre style=&quot;font-family: var(--ds-font-family-code); overflow: auto; padding: calc(var(--ds-md-zoom)*8px)calc(var(--ds-md-zoom)*12px); text-wrap: wrap; word-break: break-all; color: rgb(255, 255, 255); text-align: start; margin-top: 0px !important; margin-bottom: 0px !important;&quot;&gt;&lt;font style=&quot;font-size: 14px;&quot;&gt;&lt;b&gt;Patch Management&lt;/b&gt;&lt;/font&gt;&lt;/pre&gt;" style="ellipse;whiteSpace=wrap;html=1;fillColor=#7AAD46;" vertex="1" parent="1">
          <mxGeometry x="1580" y="135" width="140" height="75" as="geometry" />
        </mxCell>
        <mxCell id="bZBiRagULBZc9RhgCNNF-157" value="" style="endArrow=classic;html=1;rounded=0;entryX=0;entryY=0.5;entryDx=0;entryDy=0;exitX=1;exitY=0.5;exitDx=0;exitDy=0;" edge="1" parent="1" source="bZBiRagULBZc9RhgCNNF-156" target="bZBiRagULBZc9RhgCNNF-158">
          <mxGeometry width="50" height="50" relative="1" as="geometry">
            <mxPoint x="1630" y="355" as="sourcePoint" />
            <mxPoint x="1500" y="455" as="targetPoint" />
          </mxGeometry>
        </mxCell>
        <mxCell id="bZBiRagULBZc9RhgCNNF-158" value="&lt;h1 style=&quot;margin-top: 0px;&quot;&gt;&lt;span style=&quot;font-size: 12px; font-weight: 400;&quot;&gt;Application of software updates.&lt;/span&gt;&lt;br&gt;&lt;/h1&gt;" style="text;html=1;whiteSpace=wrap;overflow=hidden;rounded=0;" vertex="1" parent="1">
          <mxGeometry x="1830" y="105" width="173" height="50" as="geometry" />
        </mxCell>
        <mxCell id="bZBiRagULBZc9RhgCNNF-159" value="Ex" style="rhombus;whiteSpace=wrap;html=1;" vertex="1" parent="1">
          <mxGeometry x="1850" y="182.5" width="60" height="50" as="geometry" />
        </mxCell>
        <mxCell id="bZBiRagULBZc9RhgCNNF-160" value="" style="endArrow=classic;html=1;rounded=0;exitX=1;exitY=1;exitDx=0;exitDy=0;entryX=0;entryY=0.5;entryDx=0;entryDy=0;" edge="1" parent="1" source="bZBiRagULBZc9RhgCNNF-156" target="bZBiRagULBZc9RhgCNNF-159">
          <mxGeometry width="50" height="50" relative="1" as="geometry">
            <mxPoint x="1670" y="375" as="sourcePoint" />
            <mxPoint x="1770" y="385" as="targetPoint" />
          </mxGeometry>
        </mxCell>
        <mxCell id="bZBiRagULBZc9RhgCNNF-161" value="Windows automatic updates" style="text;html=1;align=center;verticalAlign=middle;whiteSpace=wrap;rounded=0;" vertex="1" parent="1">
          <mxGeometry x="1960" y="180" width="140" height="55" as="geometry" />
        </mxCell>
        <mxCell id="bZBiRagULBZc9RhgCNNF-162" value="" style="endArrow=classic;html=1;rounded=0;entryX=0;entryY=0.5;entryDx=0;entryDy=0;exitX=1;exitY=0.5;exitDx=0;exitDy=0;" edge="1" parent="1" source="bZBiRagULBZc9RhgCNNF-159" target="bZBiRagULBZc9RhgCNNF-161">
          <mxGeometry width="50" height="50" relative="1" as="geometry">
            <mxPoint x="1730" y="615" as="sourcePoint" />
            <mxPoint x="1780" y="565" as="targetPoint" />
          </mxGeometry>
        </mxCell>
        <mxCell id="bZBiRagULBZc9RhgCNNF-163" value="" style="endArrow=classic;html=1;rounded=0;exitX=1;exitY=1;exitDx=0;exitDy=0;entryX=0;entryY=0.5;entryDx=0;entryDy=0;" edge="1" parent="1" source="bZBiRagULBZc9RhgCNNF-138" target="bZBiRagULBZc9RhgCNNF-164">
          <mxGeometry width="50" height="50" relative="1" as="geometry">
            <mxPoint x="1534" y="420" as="sourcePoint" />
            <mxPoint x="1680" y="650" as="targetPoint" />
          </mxGeometry>
        </mxCell>
        <mxCell id="bZBiRagULBZc9RhgCNNF-164" value="&lt;pre style=&quot;font-family: var(--ds-font-family-code); overflow: auto; padding: calc(var(--ds-md-zoom)*8px)calc(var(--ds-md-zoom)*12px); text-wrap: wrap; word-break: break-all; color: rgb(255, 255, 255); text-align: start; margin-top: 0px !important; margin-bottom: 0px !important;&quot;&gt;&lt;font style=&quot;font-size: 14px;&quot;&gt;&lt;b&gt;Network Segmentation&lt;/b&gt;&lt;/font&gt;&lt;/pre&gt;" style="ellipse;whiteSpace=wrap;html=1;fillColor=#7AAD46;" vertex="1" parent="1">
          <mxGeometry x="1650" y="410" width="180" height="70" as="geometry" />
        </mxCell>
        <mxCell id="bZBiRagULBZc9RhgCNNF-165" value="" style="endArrow=classic;html=1;rounded=0;entryX=0;entryY=0.5;entryDx=0;entryDy=0;exitX=1;exitY=0.5;exitDx=0;exitDy=0;" edge="1" parent="1" source="bZBiRagULBZc9RhgCNNF-164" target="bZBiRagULBZc9RhgCNNF-166">
          <mxGeometry width="50" height="50" relative="1" as="geometry">
            <mxPoint x="1630" y="510" as="sourcePoint" />
            <mxPoint x="1500" y="610" as="targetPoint" />
          </mxGeometry>
        </mxCell>
        <mxCell id="bZBiRagULBZc9RhgCNNF-166" value="&lt;h1 style=&quot;margin-top: 0px;&quot;&gt;&lt;span style=&quot;font-size: 12px; font-weight: 400;&quot;&gt;Network division to improve security.&lt;/span&gt;&lt;br&gt;&lt;/h1&gt;" style="text;html=1;whiteSpace=wrap;overflow=hidden;rounded=0;" vertex="1" parent="1">
          <mxGeometry x="1887" y="422.5" width="213" height="45" as="geometry" />
        </mxCell>
        <mxCell id="bZBiRagULBZc9RhgCNNF-167" value="Ex" style="rhombus;whiteSpace=wrap;html=1;" vertex="1" parent="1">
          <mxGeometry x="1880" y="492.5" width="60" height="50" as="geometry" />
        </mxCell>
        <mxCell id="bZBiRagULBZc9RhgCNNF-168" value="" style="endArrow=classic;html=1;rounded=0;exitX=1;exitY=1;exitDx=0;exitDy=0;entryX=0;entryY=0;entryDx=0;entryDy=0;" edge="1" parent="1" source="bZBiRagULBZc9RhgCNNF-164" target="bZBiRagULBZc9RhgCNNF-167">
          <mxGeometry width="50" height="50" relative="1" as="geometry">
            <mxPoint x="1670" y="530" as="sourcePoint" />
            <mxPoint x="1770" y="540" as="targetPoint" />
          </mxGeometry>
        </mxCell>
        <mxCell id="bZBiRagULBZc9RhgCNNF-169" value="Separate employee and server networks." style="text;html=1;align=center;verticalAlign=middle;whiteSpace=wrap;rounded=0;" vertex="1" parent="1">
          <mxGeometry x="2020" y="487.5" width="130" height="60" as="geometry" />
        </mxCell>
        <mxCell id="bZBiRagULBZc9RhgCNNF-170" value="" style="endArrow=classic;html=1;rounded=0;entryX=0;entryY=0.5;entryDx=0;entryDy=0;exitX=1;exitY=0.5;exitDx=0;exitDy=0;" edge="1" parent="1" source="bZBiRagULBZc9RhgCNNF-167" target="bZBiRagULBZc9RhgCNNF-169">
          <mxGeometry width="50" height="50" relative="1" as="geometry">
            <mxPoint x="1730" y="770" as="sourcePoint" />
            <mxPoint x="1780" y="720" as="targetPoint" />
          </mxGeometry>
        </mxCell>
        <mxCell id="bZBiRagULBZc9RhgCNNF-172" value="&lt;font style=&quot;font-size: 24px;&quot;&gt;&lt;b&gt;Vocabulary&lt;/b&gt;&lt;/font&gt;" style="whiteSpace=wrap;html=1;aspect=fixed;" vertex="1" parent="1">
          <mxGeometry x="773" y="-110" width="130" height="130" as="geometry" />
        </mxCell>
        <mxCell id="bZBiRagULBZc9RhgCNNF-173" value="" style="endArrow=classic;html=1;rounded=0;entryX=0.5;entryY=1;entryDx=0;entryDy=0;exitX=0.5;exitY=0;exitDx=0;exitDy=0;" edge="1" parent="1" source="bZBiRagULBZc9RhgCNNF-172" target="bZBiRagULBZc9RhgCNNF-1">
          <mxGeometry width="50" height="50" relative="1" as="geometry">
            <mxPoint x="843" y="-120" as="sourcePoint" />
            <mxPoint x="1035" y="40" as="targetPoint" />
          </mxGeometry>
        </mxCell>
        <mxCell id="bZBiRagULBZc9RhgCNNF-174" value="" style="endArrow=classic;html=1;rounded=0;exitX=1;exitY=0.5;exitDx=0;exitDy=0;entryX=0.5;entryY=0;entryDx=0;entryDy=0;" edge="1" parent="1" source="bZBiRagULBZc9RhgCNNF-172" target="bZBiRagULBZc9RhgCNNF-138">
          <mxGeometry width="50" height="50" relative="1" as="geometry">
            <mxPoint x="990" y="200" as="sourcePoint" />
            <mxPoint x="1040" y="150" as="targetPoint" />
            <Array as="points">
              <mxPoint x="1490" y="50" />
            </Array>
          </mxGeometry>
        </mxCell>
        <mxCell id="bZBiRagULBZc9RhgCNNF-176" value="" style="endArrow=classic;html=1;rounded=0;exitX=0;exitY=0.5;exitDx=0;exitDy=0;entryX=0.5;entryY=0;entryDx=0;entryDy=0;" edge="1" parent="1" source="bZBiRagULBZc9RhgCNNF-172" target="bZBiRagULBZc9RhgCNNF-104">
          <mxGeometry width="50" height="50" relative="1" as="geometry">
            <mxPoint x="1000" y="210" as="sourcePoint" />
            <mxPoint x="440" y="60" as="targetPoint" />
            <Array as="points">
              <mxPoint x="270" y="45" />
            </Array>
          </mxGeometry>
        </mxCell>
        <mxCell id="bZBiRagULBZc9RhgCNNF-184" value="" style="shape=image;verticalLabelPosition=bottom;labelBackgroundColor=default;verticalAlign=top;aspect=fixed;imageAspect=0;image=https://static.vecteezy.com/system/resources/thumbnails/002/573/352/small/shield-secure-and-check-symbol-line-style-icon-free-vector.jpg;" vertex="1" parent="1">
          <mxGeometry x="803" y="-517.5" width="70" height="70" as="geometry" />
        </mxCell>
        <mxCell id="bZBiRagULBZc9RhgCNNF-185" value="" style="shape=image;verticalLabelPosition=bottom;labelBackgroundColor=default;verticalAlign=top;aspect=fixed;imageAspect=0;image=https://img.freepik.com/premium-vector/threats-icon-vector-image-can-be-used-bullying-society_120816-81659.jpg;" vertex="1" parent="1">
          <mxGeometry x="235" y="390" width="70" height="70" as="geometry" />
        </mxCell>
        <mxCell id="bZBiRagULBZc9RhgCNNF-186" value="" style="shape=image;verticalLabelPosition=bottom;labelBackgroundColor=default;verticalAlign=top;aspect=fixed;imageAspect=0;image=https://www.shutterstock.com/image-vector/access-control-security-measures-vector-600nw-2374344813.jpg;" vertex="1" parent="1">
          <mxGeometry x="1452.5" y="410" width="75" height="75" as="geometry" />
        </mxCell>
        <mxCell id="bZBiRagULBZc9RhgCNNF-187" value="&lt;div&gt;Antivirus Software&lt;/div&gt;&lt;div&gt;â&lt;/div&gt;&lt;div&gt;&lt;span style=&quot;background-color: initial;&quot;&gt;Detect and eliminate&lt;/span&gt;&lt;/div&gt;&lt;div&gt;&lt;span style=&quot;background-color: initial;&quot;&gt;â&lt;/span&gt;&lt;br&gt;&lt;/div&gt;&lt;div&gt;Malware (Virus, Worm, Spyware)&lt;/div&gt;" style="text;html=1;align=center;verticalAlign=middle;resizable=0;points=[];autosize=1;strokeColor=none;fillColor=none;" vertex="1" parent="1">
          <mxGeometry x="847.28" y="587.5" width="200" height="90" as="geometry" />
        </mxCell>
        <mxCell id="bZBiRagULBZc9RhgCNNF-189" value="Scheme" style="triangle;whiteSpace=wrap;html=1;fillColor=#76608A;" vertex="1" parent="1">
          <mxGeometry x="1071" y="590" width="60" height="85" as="geometry" />
        </mxCell>
        <mxCell id="bZBiRagULBZc9RhgCNNF-190" value="" style="endArrow=classic;html=1;rounded=0;entryX=1;entryY=0.5;entryDx=0;entryDy=0;exitX=0.5;exitY=1;exitDx=0;exitDy=0;" edge="1" parent="1" source="bZBiRagULBZc9RhgCNNF-151" target="bZBiRagULBZc9RhgCNNF-189">
          <mxGeometry width="50" height="50" relative="1" as="geometry">
            <mxPoint x="1294" y="565" as="sourcePoint" />
            <mxPoint x="1419" y="705" as="targetPoint" />
          </mxGeometry>
        </mxCell>
        <mxCell id="bZBiRagULBZc9RhgCNNF-191" value="" style="endArrow=classic;html=1;rounded=0;exitX=0;exitY=0.5;exitDx=0;exitDy=0;" edge="1" parent="1" source="bZBiRagULBZc9RhgCNNF-189" target="bZBiRagULBZc9RhgCNNF-187">
          <mxGeometry width="50" height="50" relative="1" as="geometry">
            <mxPoint x="1304" y="615" as="sourcePoint" />
            <mxPoint x="1249" y="673" as="targetPoint" />
          </mxGeometry>
        </mxCell>
        <mxCell id="bZBiRagULBZc9RhgCNNF-196" value="&lt;div&gt;Patch Management&lt;/div&gt;&lt;div&gt;&amp;nbsp;â&lt;/div&gt;&lt;div&gt;&lt;span style=&quot;background-color: initial;&quot;&gt;Fix vulnerabilities&lt;/span&gt;&lt;/div&gt;&lt;div&gt;&lt;span style=&quot;background-color: initial;&quot;&gt;&amp;nbsp;â&lt;/span&gt;&lt;br&gt;&lt;/div&gt;&lt;div&gt;Prevents Zero-Day Exploit&lt;/div&gt;" style="text;html=1;align=center;verticalAlign=middle;resizable=0;points=[];autosize=1;strokeColor=none;fillColor=none;" vertex="1" parent="1">
          <mxGeometry x="643" y="597.5" width="160" height="90" as="geometry" />
        </mxCell>
        <mxCell id="bZBiRagULBZc9RhgCNNF-197" value="Scheme" style="triangle;whiteSpace=wrap;html=1;fillColor=#76608A;" vertex="1" parent="1">
          <mxGeometry x="554" y="590" width="60" height="85" as="geometry" />
        </mxCell>
        <mxCell id="bZBiRagULBZc9RhgCNNF-198" value="" style="endArrow=classic;html=1;rounded=0;entryX=0;entryY=0.5;entryDx=0;entryDy=0;exitX=0.5;exitY=1;exitDx=0;exitDy=0;" edge="1" parent="1" target="bZBiRagULBZc9RhgCNNF-197" source="bZBiRagULBZc9RhgCNNF-133">
          <mxGeometry width="50" height="50" relative="1" as="geometry">
            <mxPoint x="463.78" y="607.5" as="sourcePoint" />
            <mxPoint x="588.78" y="747.5" as="targetPoint" />
          </mxGeometry>
        </mxCell>
        <mxCell id="bZBiRagULBZc9RhgCNNF-199" value="" style="endArrow=classic;html=1;rounded=0;exitX=1;exitY=0.5;exitDx=0;exitDy=0;entryX=0.007;entryY=0.425;entryDx=0;entryDy=0;entryPerimeter=0;" edge="1" parent="1" source="bZBiRagULBZc9RhgCNNF-197" target="bZBiRagULBZc9RhgCNNF-196">
          <mxGeometry width="50" height="50" relative="1" as="geometry">
            <mxPoint x="504.28" y="670" as="sourcePoint" />
            <mxPoint x="764.28" y="670" as="targetPoint" />
          </mxGeometry>
        </mxCell>
        <mxCell id="bZBiRagULBZc9RhgCNNF-200" value="&lt;div&gt;Network Segmentation&lt;/div&gt;&lt;div&gt;â&lt;/div&gt;&lt;div&gt;&lt;span style=&quot;background-color: initial;&quot;&gt;Limit access to critical areas&lt;/span&gt;&lt;/div&gt;&lt;div&gt;&lt;span style=&quot;background-color: initial;&quot;&gt;â&lt;/span&gt;&lt;br&gt;&lt;/div&gt;&lt;div&gt;Mitigate Insider Threat&lt;/div&gt;" style="text;html=1;align=center;verticalAlign=middle;resizable=0;points=[];autosize=1;strokeColor=none;fillColor=none;" vertex="1" parent="1">
          <mxGeometry x="728" y="325" width="170" height="90" as="geometry" />
        </mxCell>
        <mxCell id="bZBiRagULBZc9RhgCNNF-201" value="Scheme" style="triangle;whiteSpace=wrap;html=1;fillColor=#76608A;" vertex="1" parent="1">
          <mxGeometry x="654" y="320" width="60" height="85" as="geometry" />
        </mxCell>
        <mxCell id="bZBiRagULBZc9RhgCNNF-202" value="" style="endArrow=classic;html=1;rounded=0;entryX=0;entryY=0.5;entryDx=0;entryDy=0;exitX=0.5;exitY=1;exitDx=0;exitDy=0;" edge="1" parent="1" target="bZBiRagULBZc9RhgCNNF-201" source="bZBiRagULBZc9RhgCNNF-125">
          <mxGeometry width="50" height="50" relative="1" as="geometry">
            <mxPoint x="531.72" y="305" as="sourcePoint" />
            <mxPoint x="537.5" y="487.5" as="targetPoint" />
          </mxGeometry>
        </mxCell>
        <mxCell id="bZBiRagULBZc9RhgCNNF-203" value="" style="endArrow=classic;html=1;rounded=0;exitX=1;exitY=0.5;exitDx=0;exitDy=0;entryX=0.007;entryY=0.425;entryDx=0;entryDy=0;entryPerimeter=0;" edge="1" parent="1" source="bZBiRagULBZc9RhgCNNF-201" target="bZBiRagULBZc9RhgCNNF-200">
          <mxGeometry width="50" height="50" relative="1" as="geometry">
            <mxPoint x="453" y="410" as="sourcePoint" />
            <mxPoint x="713" y="410" as="targetPoint" />
          </mxGeometry>
        </mxCell>
        <mxCell id="bZBiRagULBZc9RhgCNNF-204" value="&lt;div&gt;Intrusion Detection System (IDS)&lt;/div&gt;&lt;div&gt;â&lt;/div&gt;&lt;div&gt;&lt;span style=&quot;background-color: initial;&quot;&gt;Monitor network traffic&lt;/span&gt;&lt;/div&gt;&lt;div&gt;&lt;span style=&quot;background-color: initial;&quot;&gt;â&lt;/span&gt;&lt;br&gt;&lt;/div&gt;&lt;div&gt;Detect SQL Injection&lt;/div&gt;" style="text;html=1;align=center;verticalAlign=middle;resizable=0;points=[];autosize=1;strokeColor=none;fillColor=none;" vertex="1" parent="1">
          <mxGeometry x="-430" y="630" width="200" height="90" as="geometry" />
        </mxCell>
        <mxCell id="bZBiRagULBZc9RhgCNNF-205" value="Scheme" style="triangle;whiteSpace=wrap;html=1;fillColor=#76608A;" vertex="1" parent="1">
          <mxGeometry x="-180" y="630" width="60" height="85" as="geometry" />
        </mxCell>
        <mxCell id="bZBiRagULBZc9RhgCNNF-206" value="" style="endArrow=classic;html=1;rounded=0;entryX=1;entryY=0.5;entryDx=0;entryDy=0;exitX=0;exitY=1;exitDx=0;exitDy=0;" edge="1" parent="1" target="bZBiRagULBZc9RhgCNNF-205" source="bZBiRagULBZc9RhgCNNF-117">
          <mxGeometry width="50" height="50" relative="1" as="geometry">
            <mxPoint x="-55" y="622.5" as="sourcePoint" />
            <mxPoint x="70" y="762.5" as="targetPoint" />
          </mxGeometry>
        </mxCell>
        <mxCell id="bZBiRagULBZc9RhgCNNF-207" value="" style="endArrow=classic;html=1;rounded=0;exitX=0;exitY=0.5;exitDx=0;exitDy=0;" edge="1" parent="1" source="bZBiRagULBZc9RhgCNNF-205" target="bZBiRagULBZc9RhgCNNF-204">
          <mxGeometry width="50" height="50" relative="1" as="geometry">
            <mxPoint x="-45" y="672.5" as="sourcePoint" />
            <mxPoint x="-100" y="730.5" as="targetPoint" />
          </mxGeometry>
        </mxCell>
        <mxCell id="bZBiRagULBZc9RhgCNNF-208" value="&lt;div&gt;Authentication&lt;/div&gt;&lt;div&gt;&amp;nbsp;â&lt;/div&gt;&lt;div&gt;&lt;span style=&quot;background-color: initial;&quot;&gt;Includes&lt;/span&gt;&lt;/div&gt;&lt;div&gt;&lt;span style=&quot;background-color: initial;&quot;&gt;&amp;nbsp;â&lt;/span&gt;&lt;br&gt;&lt;/div&gt;&lt;div&gt;Two-Factor Authentication (2FA)&lt;/div&gt;" style="text;html=1;align=center;verticalAlign=middle;resizable=0;points=[];autosize=1;strokeColor=none;fillColor=none;" vertex="1" parent="1">
          <mxGeometry x="930" y="250" width="190" height="90" as="geometry" />
        </mxCell>
        <mxCell id="bZBiRagULBZc9RhgCNNF-209" value="Scheme" style="triangle;whiteSpace=wrap;html=1;fillColor=#76608A;" vertex="1" parent="1">
          <mxGeometry x="1165" y="247.5" width="60" height="85" as="geometry" />
        </mxCell>
        <mxCell id="bZBiRagULBZc9RhgCNNF-210" value="" style="endArrow=classic;html=1;rounded=0;entryX=0.5;entryY=0;entryDx=0;entryDy=0;exitX=0.5;exitY=1;exitDx=0;exitDy=0;" edge="1" parent="1" target="bZBiRagULBZc9RhgCNNF-209" source="bZBiRagULBZc9RhgCNNF-143">
          <mxGeometry width="50" height="50" relative="1" as="geometry">
            <mxPoint x="1155.72" y="217.5" as="sourcePoint" />
            <mxPoint x="1444.72" y="387.5" as="targetPoint" />
          </mxGeometry>
        </mxCell>
        <mxCell id="bZBiRagULBZc9RhgCNNF-211" value="" style="endArrow=classic;html=1;rounded=0;exitX=0;exitY=0.5;exitDx=0;exitDy=0;" edge="1" parent="1" source="bZBiRagULBZc9RhgCNNF-209" target="bZBiRagULBZc9RhgCNNF-208">
          <mxGeometry width="50" height="50" relative="1" as="geometry">
            <mxPoint x="1329.72" y="297.5" as="sourcePoint" />
            <mxPoint x="1274.72" y="355.5" as="targetPoint" />
          </mxGeometry>
        </mxCell>
        <mxCell id="bZBiRagULBZc9RhgCNNF-212" value="&lt;div&gt;Cyber Hygiene&lt;/div&gt;&lt;div&gt;&amp;nbsp;&lt;span style=&quot;background-color: initial;&quot;&gt;â&lt;/span&gt;&lt;/div&gt;&lt;div&gt;&lt;span style=&quot;background-color: initial;&quot;&gt;Includes&lt;/span&gt;&lt;/div&gt;&lt;div&gt;&lt;span style=&quot;background-color: initial;&quot;&gt;&amp;nbsp;â&lt;/span&gt;&lt;br&gt;&lt;/div&gt;&lt;div&gt;Patch Management&lt;/div&gt;" style="text;html=1;align=center;verticalAlign=middle;resizable=0;points=[];autosize=1;strokeColor=none;fillColor=none;" vertex="1" parent="1">
          <mxGeometry x="1970" y="280" width="130" height="90" as="geometry" />
        </mxCell>
        <mxCell id="bZBiRagULBZc9RhgCNNF-213" value="Scheme" style="triangle;whiteSpace=wrap;html=1;fillColor=#76608A;" vertex="1" parent="1">
          <mxGeometry x="1850" y="275" width="60" height="85" as="geometry" />
        </mxCell>
        <mxCell id="bZBiRagULBZc9RhgCNNF-214" value="" style="endArrow=classic;html=1;rounded=0;entryX=0.5;entryY=0;entryDx=0;entryDy=0;exitX=0.5;exitY=1;exitDx=0;exitDy=0;" edge="1" parent="1" target="bZBiRagULBZc9RhgCNNF-213" source="bZBiRagULBZc9RhgCNNF-159">
          <mxGeometry width="50" height="50" relative="1" as="geometry">
            <mxPoint x="1870" y="247.5" as="sourcePoint" />
            <mxPoint x="1780.5" y="452" as="targetPoint" />
          </mxGeometry>
        </mxCell>
        <mxCell id="bZBiRagULBZc9RhgCNNF-215" value="" style="endArrow=classic;html=1;rounded=0;exitX=1;exitY=0.5;exitDx=0;exitDy=0;entryX=0.007;entryY=0.425;entryDx=0;entryDy=0;entryPerimeter=0;" edge="1" parent="1" source="bZBiRagULBZc9RhgCNNF-213" target="bZBiRagULBZc9RhgCNNF-212">
          <mxGeometry width="50" height="50" relative="1" as="geometry">
            <mxPoint x="1696" y="374.5" as="sourcePoint" />
            <mxPoint x="1956" y="374.5" as="targetPoint" />
          </mxGeometry>
        </mxCell>
        <mxCell id="bZBiRagULBZc9RhgCNNF-216" value="&lt;div&gt;Network Segmentation&lt;/div&gt;&lt;div&gt;&amp;nbsp; â&lt;/div&gt;&lt;div&gt;&lt;span style=&quot;background-color: initial;&quot;&gt;Facilitates&lt;/span&gt;&lt;/div&gt;&lt;div&gt;&lt;span style=&quot;background-color: initial;&quot;&gt;&amp;nbsp;â&lt;/span&gt;&lt;br&gt;&lt;/div&gt;&lt;div&gt;Intrusion Detection System (IDS)&lt;/div&gt;" style="text;html=1;align=center;verticalAlign=middle;resizable=0;points=[];autosize=1;strokeColor=none;fillColor=none;" vertex="1" parent="1">
          <mxGeometry x="2003" y="605.5" width="200" height="90" as="geometry" />
        </mxCell>
        <mxCell id="bZBiRagULBZc9RhgCNNF-217" value="Scheme" style="triangle;whiteSpace=wrap;html=1;fillColor=#76608A;" vertex="1" parent="1">
          <mxGeometry x="1880" y="602.5" width="60" height="85" as="geometry" />
        </mxCell>
        <mxCell id="bZBiRagULBZc9RhgCNNF-218" value="" style="endArrow=classic;html=1;rounded=0;entryX=0.5;entryY=0;entryDx=0;entryDy=0;exitX=0.5;exitY=1;exitDx=0;exitDy=0;" edge="1" parent="1" target="bZBiRagULBZc9RhgCNNF-217" source="bZBiRagULBZc9RhgCNNF-167">
          <mxGeometry width="50" height="50" relative="1" as="geometry">
            <mxPoint x="1820" y="570" as="sourcePoint" />
            <mxPoint x="1752.5" y="762" as="targetPoint" />
          </mxGeometry>
        </mxCell>
        <mxCell id="bZBiRagULBZc9RhgCNNF-219" value="" style="endArrow=classic;html=1;rounded=0;exitX=1;exitY=0.5;exitDx=0;exitDy=0;entryX=0.007;entryY=0.425;entryDx=0;entryDy=0;entryPerimeter=0;" edge="1" parent="1" source="bZBiRagULBZc9RhgCNNF-217" target="bZBiRagULBZc9RhgCNNF-216">
          <mxGeometry width="50" height="50" relative="1" as="geometry">
            <mxPoint x="1668" y="684.5" as="sourcePoint" />
            <mxPoint x="1928" y="684.5" as="targetPoint" />
          </mxGeometry>
        </mxCell>
        <mxCell id="bZBiRagULBZc9RhgCNNF-224" value="&lt;div&gt;Access Control&lt;/div&gt;&lt;div&gt;&amp;nbsp; â&lt;/div&gt;&lt;div&gt;&lt;span style=&quot;background-color: initial;&quot;&gt;It is reinforced with&lt;/span&gt;&lt;/div&gt;&lt;div&gt;&lt;span style=&quot;background-color: initial;&quot;&gt;&amp;nbsp;â&lt;/span&gt;&lt;br&gt;&lt;/div&gt;&lt;div&gt;Least Privilege Principle&lt;/div&gt;" style="text;html=1;align=center;verticalAlign=middle;resizable=0;points=[];autosize=1;strokeColor=none;fillColor=none;" vertex="1" parent="1">
          <mxGeometry x="175" y="-430" width="150" height="90" as="geometry" />
        </mxCell>
        <mxCell id="bZBiRagULBZc9RhgCNNF-225" value="Scheme" style="triangle;whiteSpace=wrap;html=1;fillColor=#76608A;fontColor=#ffffff;strokeColor=#432D57;" vertex="1" parent="1">
          <mxGeometry x="445" y="-425" width="60" height="85" as="geometry" />
        </mxCell>
        <mxCell id="bZBiRagULBZc9RhgCNNF-226" value="" style="endArrow=classic;html=1;rounded=0;entryX=1;entryY=0.5;entryDx=0;entryDy=0;exitX=0.5;exitY=1;exitDx=0;exitDy=0;" edge="1" parent="1" target="bZBiRagULBZc9RhgCNNF-225" source="bZBiRagULBZc9RhgCNNF-7">
          <mxGeometry width="50" height="50" relative="1" as="geometry">
            <mxPoint x="436" y="-420" as="sourcePoint" />
            <mxPoint x="561" y="-242.5" as="targetPoint" />
          </mxGeometry>
        </mxCell>
        <mxCell id="bZBiRagULBZc9RhgCNNF-227" value="" style="endArrow=classic;html=1;rounded=0;exitX=0;exitY=0.5;exitDx=0;exitDy=0;" edge="1" parent="1" source="bZBiRagULBZc9RhgCNNF-225" target="bZBiRagULBZc9RhgCNNF-224">
          <mxGeometry width="50" height="50" relative="1" as="geometry">
            <mxPoint x="446" y="-332.5" as="sourcePoint" />
            <mxPoint x="391" y="-274.5" as="targetPoint" />
          </mxGeometry>
        </mxCell>
        <mxCell id="bZBiRagULBZc9RhgCNNF-228" value="&lt;div&gt;Public Key Infrastructure (PKI)&lt;/div&gt;&lt;div&gt;&amp;nbsp; â&lt;/div&gt;&lt;div&gt;Facilitates&lt;/div&gt;&lt;div&gt;&amp;nbsp; â&lt;/div&gt;&lt;div&gt;Digital Signature&lt;/div&gt;" style="text;html=1;align=center;verticalAlign=middle;resizable=0;points=[];autosize=1;strokeColor=none;fillColor=none;" vertex="1" parent="1">
          <mxGeometry x="1457.5" y="-157.5" width="180" height="90" as="geometry" />
        </mxCell>
        <mxCell id="bZBiRagULBZc9RhgCNNF-229" value="Scheme" style="triangle;whiteSpace=wrap;html=1;fillColor=#76608A;" vertex="1" parent="1">
          <mxGeometry x="1330" y="-155" width="60" height="85" as="geometry" />
        </mxCell>
        <mxCell id="bZBiRagULBZc9RhgCNNF-230" value="" style="endArrow=classic;html=1;rounded=0;entryX=0;entryY=0.5;entryDx=0;entryDy=0;exitX=0.5;exitY=1;exitDx=0;exitDy=0;" edge="1" parent="1" target="bZBiRagULBZc9RhgCNNF-229" source="bZBiRagULBZc9RhgCNNF-34">
          <mxGeometry width="50" height="50" relative="1" as="geometry">
            <mxPoint x="1136" y="-210" as="sourcePoint" />
            <mxPoint x="1192" y="-2.5" as="targetPoint" />
          </mxGeometry>
        </mxCell>
        <mxCell id="bZBiRagULBZc9RhgCNNF-231" value="" style="endArrow=classic;html=1;rounded=0;exitX=1;exitY=0.5;exitDx=0;exitDy=0;" edge="1" parent="1" source="bZBiRagULBZc9RhgCNNF-229" target="bZBiRagULBZc9RhgCNNF-228">
          <mxGeometry width="50" height="50" relative="1" as="geometry">
            <mxPoint x="1345" y="-100" as="sourcePoint" />
            <mxPoint x="1022" y="-34.5" as="targetPoint" />
          </mxGeometry>
        </mxCell>
        <mxCell id="bZBiRagULBZc9RhgCNNF-233" value="&lt;div&gt;Confidentiality&lt;/div&gt;&lt;div&gt;&amp;nbsp; â&lt;/div&gt;&lt;div&gt;&lt;span style=&quot;background-color: initial;&quot;&gt;It is achieved through&lt;/span&gt;&lt;/div&gt;&lt;div&gt;&lt;span style=&quot;background-color: initial;&quot;&gt;&amp;nbsp; â&lt;/span&gt;&lt;br&gt;&lt;/div&gt;&lt;div&gt;Encryption&lt;/div&gt;" style="text;html=1;align=center;verticalAlign=middle;resizable=0;points=[];autosize=1;strokeColor=none;fillColor=none;" vertex="1" parent="1">
          <mxGeometry x="145" y="-125" width="140" height="90" as="geometry" />
        </mxCell>
        <mxCell id="bZBiRagULBZc9RhgCNNF-234" value="Scheme" style="triangle;whiteSpace=wrap;html=1;fillColor=#76608A;" vertex="1" parent="1">
          <mxGeometry x="347" y="-125" width="60" height="85" as="geometry" />
        </mxCell>
        <mxCell id="bZBiRagULBZc9RhgCNNF-235" value="" style="endArrow=classic;html=1;rounded=0;entryX=1;entryY=0.5;entryDx=0;entryDy=0;exitX=0.5;exitY=1;exitDx=0;exitDy=0;" edge="1" parent="1" target="bZBiRagULBZc9RhgCNNF-234" source="bZBiRagULBZc9RhgCNNF-16">
          <mxGeometry width="50" height="50" relative="1" as="geometry">
            <mxPoint x="475" y="-150" as="sourcePoint" />
            <mxPoint x="531" y="57.5" as="targetPoint" />
          </mxGeometry>
        </mxCell>
        <mxCell id="bZBiRagULBZc9RhgCNNF-236" value="" style="endArrow=classic;html=1;rounded=0;exitX=0;exitY=0.5;exitDx=0;exitDy=0;" edge="1" parent="1" source="bZBiRagULBZc9RhgCNNF-234" target="bZBiRagULBZc9RhgCNNF-233">
          <mxGeometry width="50" height="50" relative="1" as="geometry">
            <mxPoint x="416" y="-32.5" as="sourcePoint" />
            <mxPoint x="361" y="25.5" as="targetPoint" />
          </mxGeometry>
        </mxCell>
        <mxCell id="bZBiRagULBZc9RhgCNNF-237" value="&lt;div&gt;Integrity&lt;/div&gt;&lt;div&gt;&amp;nbsp; â&lt;/div&gt;&lt;div&gt;&lt;span style=&quot;background-color: initial;&quot;&gt;It is achieved through&lt;/span&gt;&lt;/div&gt;&lt;div&gt;&lt;span style=&quot;background-color: initial;&quot;&gt;&amp;nbsp; â&lt;/span&gt;&lt;br&gt;&lt;/div&gt;&lt;div&gt;Digital Signature&lt;/div&gt;" style="text;html=1;align=center;verticalAlign=middle;resizable=0;points=[];autosize=1;strokeColor=none;fillColor=none;" vertex="1" parent="1">
          <mxGeometry x="1330" y="-425" width="140" height="90" as="geometry" />
        </mxCell>
        <mxCell id="bZBiRagULBZc9RhgCNNF-238" value="Scheme" style="triangle;whiteSpace=wrap;html=1;fillColor=#76608A;" vertex="1" parent="1">
          <mxGeometry x="1190" y="-425" width="60" height="85" as="geometry" />
        </mxCell>
        <mxCell id="bZBiRagULBZc9RhgCNNF-239" value="" style="endArrow=classic;html=1;rounded=0;entryX=0.5;entryY=0;entryDx=0;entryDy=0;exitX=0.5;exitY=1;exitDx=0;exitDy=0;" edge="1" parent="1" target="bZBiRagULBZc9RhgCNNF-238" source="bZBiRagULBZc9RhgCNNF-25">
          <mxGeometry width="50" height="50" relative="1" as="geometry">
            <mxPoint x="1230" y="-435" as="sourcePoint" />
            <mxPoint x="1147" y="-247.5" as="targetPoint" />
          </mxGeometry>
        </mxCell>
        <mxCell id="bZBiRagULBZc9RhgCNNF-240" value="" style="endArrow=classic;html=1;rounded=0;exitX=1;exitY=0.5;exitDx=0;exitDy=0;" edge="1" parent="1" source="bZBiRagULBZc9RhgCNNF-238" target="bZBiRagULBZc9RhgCNNF-237">
          <mxGeometry width="50" height="50" relative="1" as="geometry">
            <mxPoint x="1300" y="-345" as="sourcePoint" />
            <mxPoint x="977" y="-279.5" as="targetPoint" />
          </mxGeometry>
        </mxCell>
        <mxCell id="bZBiRagULBZc9RhgCNNF-243" value="&lt;div&gt;Virus&lt;/div&gt;&lt;div&gt;&amp;nbsp; â&lt;/div&gt;&lt;div&gt;&lt;span style=&quot;background-color: initial;&quot;&gt;It is prevented with&lt;/span&gt;&lt;/div&gt;&lt;div&gt;&lt;span style=&quot;background-color: initial;&quot;&gt;&amp;nbsp; â&lt;/span&gt;&lt;br&gt;&lt;/div&gt;&lt;div&gt;Antivirus Software&lt;/div&gt;" style="text;html=1;align=center;verticalAlign=middle;resizable=0;points=[];autosize=1;strokeColor=none;fillColor=none;" vertex="1" parent="1">
          <mxGeometry x="-370" y="329.5" width="120" height="90" as="geometry" />
        </mxCell>
        <mxCell id="bZBiRagULBZc9RhgCNNF-244" value="Scheme" style="triangle;whiteSpace=wrap;html=1;fillColor=#76608A;" vertex="1" parent="1">
          <mxGeometry x="-180" y="332" width="60" height="85" as="geometry" />
        </mxCell>
        <mxCell id="bZBiRagULBZc9RhgCNNF-245" value="" style="endArrow=classic;html=1;rounded=0;entryX=1;entryY=0.5;entryDx=0;entryDy=0;exitX=0.5;exitY=1;exitDx=0;exitDy=0;" edge="1" parent="1" target="bZBiRagULBZc9RhgCNNF-244" source="bZBiRagULBZc9RhgCNNF-109">
          <mxGeometry width="50" height="50" relative="1" as="geometry">
            <mxPoint x="-95" y="287" as="sourcePoint" />
            <mxPoint x="30" y="464.5" as="targetPoint" />
          </mxGeometry>
        </mxCell>
        <mxCell id="bZBiRagULBZc9RhgCNNF-246" value="" style="endArrow=classic;html=1;rounded=0;exitX=0;exitY=0.5;exitDx=0;exitDy=0;" edge="1" parent="1" source="bZBiRagULBZc9RhgCNNF-244" target="bZBiRagULBZc9RhgCNNF-243">
          <mxGeometry width="50" height="50" relative="1" as="geometry">
            <mxPoint x="-85" y="374.5" as="sourcePoint" />
            <mxPoint x="-140" y="432.5" as="targetPoint" />
          </mxGeometry>
        </mxCell>
        <mxCell id="bZBiRagULBZc9RhgCNNF-247" value="&lt;h1 style=&quot;margin-top: 0px;&quot;&gt;Security Terms&lt;/h1&gt;&lt;div&gt;&lt;table style=&quot;border-collapse:&lt;br/&gt; collapse;width:151pt&quot; width=&quot;201&quot; cellspacing=&quot;0&quot; cellpadding=&quot;0&quot; border=&quot;0&quot;&gt; &lt;colgroup&gt;&lt;col style=&quot;mso-width-source:userset;mso-width-alt:7350;width:151pt&quot; width=&quot;201&quot;&gt;&lt;/colgroup&gt; &lt;tbody&gt;&lt;tr style=&quot;height:15.0pt&quot; height=&quot;20&quot;&gt;  &lt;td style=&quot;height:15.0pt;width:151pt&quot; width=&quot;201&quot; height=&quot;20&quot;&gt;&lt;ul&gt;&lt;li&gt;Access Control&lt;/li&gt;&lt;/ul&gt;&lt;/td&gt; &lt;/tr&gt; &lt;tr style=&quot;height:15.0pt&quot; height=&quot;20&quot;&gt;  &lt;td style=&quot;height:15.0pt&quot; height=&quot;20&quot;&gt;&lt;ul&gt;&lt;li&gt;Confidentiality&lt;/li&gt;&lt;/ul&gt;&lt;/td&gt; &lt;/tr&gt; &lt;tr style=&quot;height:15.0pt&quot; height=&quot;20&quot;&gt;  &lt;td style=&quot;height:15.0pt&quot; height=&quot;20&quot;&gt;&lt;ul&gt;&lt;li&gt;Integrity&lt;/li&gt;&lt;/ul&gt;&lt;/td&gt; &lt;/tr&gt; &lt;tr style=&quot;height:15.0pt&quot; height=&quot;20&quot;&gt;  &lt;td style=&quot;height:15.0pt&quot; height=&quot;20&quot;&gt;&lt;ul&gt;&lt;li&gt;Public Key Infrastructure(PKI)&lt;/li&gt;&lt;/ul&gt;&lt;/td&gt; &lt;/tr&gt; &lt;tr style=&quot;height:15.0pt&quot; height=&quot;20&quot;&gt;  &lt;td style=&quot;height:15.0pt&quot; height=&quot;20&quot;&gt;&lt;ul&gt;&lt;li&gt;Incident Response Plan&lt;/li&gt;&lt;/ul&gt;&lt;/td&gt; &lt;/tr&gt; &lt;tr style=&quot;height:15.0pt&quot; height=&quot;20&quot;&gt;  &lt;td style=&quot;height:15.0pt&quot; height=&quot;20&quot;&gt;&lt;ul&gt;&lt;li&gt;Backup and Recovery&lt;/li&gt;&lt;/ul&gt;&lt;/td&gt; &lt;/tr&gt; &lt;tr style=&quot;height:15.0pt&quot; height=&quot;20&quot;&gt;  &lt;td style=&quot;height:15.0pt&quot; height=&quot;20&quot;&gt;&lt;ul&gt;&lt;li&gt;Least Privilege Principle&lt;/li&gt;&lt;/ul&gt;&lt;/td&gt; &lt;/tr&gt; &lt;tr style=&quot;height:15.0pt&quot; height=&quot;20&quot;&gt;  &lt;td style=&quot;height:15.0pt&quot; height=&quot;20&quot;&gt;&lt;ul&gt;&lt;li&gt;Threat Modeling&lt;/li&gt;&lt;/ul&gt;&lt;/td&gt; &lt;/tr&gt; &lt;tr style=&quot;height:15.0pt&quot; height=&quot;20&quot;&gt;  &lt;td style=&quot;height:15.0pt&quot; height=&quot;20&quot;&gt;&lt;ul&gt;&lt;li&gt;Cybersecurity Awareness Training&lt;/li&gt;&lt;/ul&gt;&lt;/td&gt; &lt;/tr&gt;&lt;/tbody&gt;&lt;/table&gt;&lt;/div&gt;" style="text;html=1;whiteSpace=wrap;overflow=hidden;rounded=0;" vertex="1" parent="1">
          <mxGeometry x="454" y="-1120" width="213" height="420" as="geometry" />
        </mxCell>
        <mxCell id="bZBiRagULBZc9RhgCNNF-249" value="&lt;h1 style=&quot;margin-top: 0px;&quot;&gt;Common Threats&lt;table style=&quot;background-color: initial; font-size: 12px; font-weight: normal; width: 151pt;&quot; width=&quot;201&quot; cellspacing=&quot;0&quot; cellpadding=&quot;0&quot; border=&quot;0&quot;&gt;&lt;colgroup&gt;&lt;col style=&quot;mso-width-source:userset;mso-width-alt:7350;width:151pt&quot; width=&quot;201&quot;&gt;&lt;/colgroup&gt;&lt;tbody&gt;&lt;tr style=&quot;height:15.0pt&quot; height=&quot;20&quot;&gt;&lt;td style=&quot;height:15.0pt;width:151pt&quot; width=&quot;201&quot; height=&quot;20&quot;&gt;&lt;br style=&quot;background-color: initial;&quot;&gt;&lt;table style=&quot;background-color: initial; width: 110pt;&quot; width=&quot;147&quot; cellspacing=&quot;0&quot; cellpadding=&quot;0&quot; border=&quot;0&quot;&gt;&lt;colgroup&gt;&lt;col style=&quot;mso-width-source:userset;mso-width-alt:5376;width:110pt&quot; width=&quot;147&quot;&gt;&lt;/colgroup&gt;&lt;tbody&gt;&lt;tr style=&quot;height:15.0pt&quot; height=&quot;20&quot;&gt;&lt;td style=&quot;height:15.0pt;width:110pt&quot; width=&quot;147&quot; height=&quot;20&quot;&gt;&lt;ul&gt;&lt;li&gt;Virus&lt;/li&gt;&lt;/ul&gt;&lt;/td&gt;&lt;/tr&gt;&lt;tr style=&quot;height:15.0pt&quot; height=&quot;20&quot;&gt;&lt;td style=&quot;height:15.0pt&quot; height=&quot;20&quot;&gt;&lt;ul&gt;&lt;li&gt;Worm&lt;/li&gt;&lt;/ul&gt;&lt;/td&gt;&lt;/tr&gt;&lt;tr style=&quot;height:15.0pt&quot; height=&quot;20&quot;&gt;&lt;td style=&quot;height:15.0pt&quot; height=&quot;20&quot;&gt;&lt;ul&gt;&lt;li&gt;Adware&lt;/li&gt;&lt;/ul&gt;&lt;/td&gt;&lt;/tr&gt;&lt;tr style=&quot;height:15.0pt&quot; height=&quot;20&quot;&gt;&lt;td style=&quot;height:15.0pt&quot; height=&quot;20&quot;&gt;&lt;ul&gt;&lt;li&gt;SQL Injection&lt;/li&gt;&lt;/ul&gt;&lt;/td&gt;&lt;/tr&gt;&lt;tr style=&quot;height:15.0pt&quot; height=&quot;20&quot;&gt;&lt;td style=&quot;height:15.0pt&quot; height=&quot;20&quot;&gt;&lt;ul&gt;&lt;li&gt;Cross-Site Scripting&lt;/li&gt;&lt;/ul&gt;&lt;/td&gt;&lt;/tr&gt;&lt;tr style=&quot;height:15.0pt&quot; height=&quot;20&quot;&gt;&lt;td style=&quot;height:15.0pt&quot; height=&quot;20&quot;&gt;&lt;ul&gt;&lt;li&gt;Rogue Access Point&lt;/li&gt;&lt;/ul&gt;&lt;/td&gt;&lt;/tr&gt;&lt;tr style=&quot;height:15.0pt&quot; height=&quot;20&quot;&gt;&lt;td style=&quot;height:15.0pt&quot; height=&quot;20&quot;&gt;&lt;ul&gt;&lt;li&gt;Insider Threat&lt;/li&gt;&lt;/ul&gt;&lt;/td&gt;&lt;/tr&gt;&lt;tr style=&quot;height:15.0pt&quot; height=&quot;20&quot;&gt;&lt;td style=&quot;height:15.0pt&quot; height=&quot;20&quot;&gt;&lt;ul&gt;&lt;li&gt;Spyware&lt;/li&gt;&lt;/ul&gt;&lt;/td&gt;&lt;/tr&gt;&lt;tr style=&quot;height:15.0pt&quot; height=&quot;20&quot;&gt;&lt;td style=&quot;height:15.0pt&quot; height=&quot;20&quot;&gt;&lt;ul&gt;&lt;li&gt;Zero-Day Exploit&lt;/li&gt;&lt;/ul&gt;&lt;/td&gt;&lt;/tr&gt;&lt;tr style=&quot;height:15.0pt&quot; height=&quot;20&quot;&gt;&lt;td style=&quot;height:15.0pt&quot; height=&quot;20&quot;&gt;&lt;ul&gt;&lt;li&gt;Keylogger&lt;/li&gt;&lt;/ul&gt;&lt;/td&gt;&lt;/tr&gt;&lt;/tbody&gt;&lt;/table&gt;&lt;/td&gt;&lt;/tr&gt;&lt;/tbody&gt;&lt;/table&gt;&lt;/h1&gt;" style="text;html=1;whiteSpace=wrap;overflow=hidden;rounded=0;" vertex="1" parent="1">
          <mxGeometry x="708.5" y="-1120" width="213" height="450" as="geometry" />
        </mxCell>
        <mxCell id="bZBiRagULBZc9RhgCNNF-250" value="&lt;h1 style=&quot;margin-top: 0px;&quot;&gt;Protective Measures&lt;table style=&quot;background-color: initial; font-size: 12px; font-weight: normal; width: 151pt;&quot; width=&quot;201&quot; cellspacing=&quot;0&quot; cellpadding=&quot;0&quot; border=&quot;0&quot;&gt;&lt;colgroup&gt;&lt;col style=&quot;mso-width-source:userset;mso-width-alt:7350;width:151pt&quot; width=&quot;201&quot;&gt;&lt;/colgroup&gt;&lt;tbody&gt;&lt;tr style=&quot;height:15.0pt&quot; height=&quot;20&quot;&gt;&lt;td style=&quot;height:15.0pt;width:151pt&quot; width=&quot;201&quot; height=&quot;20&quot;&gt;&lt;br style=&quot;background-color: initial;&quot;&gt;&lt;table style=&quot;background-color: initial; width: 110pt;&quot; width=&quot;147&quot; cellspacing=&quot;0&quot; cellpadding=&quot;0&quot; border=&quot;0&quot;&gt;&lt;colgroup&gt;&lt;col style=&quot;mso-width-source:userset;mso-width-alt:5376;width:110pt&quot; width=&quot;147&quot;&gt;&lt;/colgroup&gt;&lt;tbody&gt;&lt;tr style=&quot;height:15.0pt&quot; height=&quot;20&quot;&gt;&lt;td style=&quot;height:15.0pt;width:110pt&quot; width=&quot;147&quot; height=&quot;20&quot;&gt;&lt;table style=&quot;background-color: initial; border-collapse: collapse; width: 164pt;&quot; width=&quot;218&quot; cellspacing=&quot;0&quot; cellpadding=&quot;0&quot; border=&quot;0&quot;&gt;&lt;colgroup&gt;&lt;col style=&quot;mso-width-source:userset;mso-width-alt:5046;width:104pt&quot; width=&quot;138&quot;&gt;&lt;col style=&quot;width:60pt&quot; width=&quot;80&quot;&gt;&lt;/colgroup&gt;&lt;tbody&gt;&lt;tr style=&quot;height:15.0pt&quot; height=&quot;20&quot;&gt;&lt;td style=&quot;height:15.0pt;width:104pt&quot; width=&quot;138&quot; height=&quot;20&quot;&gt;&lt;ul&gt;&lt;li&gt;Authentication&lt;/li&gt;&lt;/ul&gt;&lt;/td&gt;&lt;td style=&quot;width:60pt&quot; width=&quot;80&quot;&gt;&lt;/td&gt;&lt;/tr&gt;&lt;tr style=&quot;height:15.0pt&quot; height=&quot;20&quot;&gt;&lt;td style=&quot;height:15.0pt&quot; height=&quot;20&quot;&gt;&lt;ul&gt;&lt;li&gt;Availability&lt;/li&gt;&lt;/ul&gt;&lt;/td&gt;&lt;td&gt;&lt;/td&gt;&lt;/tr&gt;&lt;tr style=&quot;height:15.0pt&quot; height=&quot;20&quot;&gt;&lt;td style=&quot;height:15.0pt&quot; height=&quot;20&quot;&gt;&lt;ul&gt;&lt;li&gt;Cyber Hygiene&lt;/li&gt;&lt;/ul&gt;&lt;/td&gt;&lt;td&gt;&lt;/td&gt;&lt;/tr&gt;&lt;tr style=&quot;height:15.0pt&quot; height=&quot;20&quot;&gt;&lt;td style=&quot;height:15.0pt&quot; height=&quot;20&quot;&gt;&lt;ul&gt;&lt;li&gt;Digital Signtarure&lt;/li&gt;&lt;/ul&gt;&lt;/td&gt;&lt;td&gt;&lt;/td&gt;&lt;/tr&gt;&lt;tr style=&quot;height:15.0pt&quot; height=&quot;20&quot;&gt;&lt;td style=&quot;height:15.0pt&quot; height=&quot;20&quot;&gt;&lt;ul&gt;&lt;li&gt;Antivirus Software&lt;/li&gt;&lt;/ul&gt;&lt;/td&gt;&lt;td&gt;&lt;/td&gt;&lt;/tr&gt;&lt;tr style=&quot;height:15.0pt&quot; height=&quot;20&quot;&gt;&lt;td style=&quot;height:15.0pt&quot; height=&quot;20&quot;&gt;&lt;ul&gt;&lt;li&gt;Patch Management&lt;/li&gt;&lt;/ul&gt;&lt;/td&gt;&lt;td&gt;&lt;/td&gt;&lt;/tr&gt;&lt;tr style=&quot;height:15.0pt&quot; height=&quot;20&quot;&gt;&lt;td style=&quot;height:15.0pt;mso-ignore:colspan&quot; colspan=&quot;2&quot; height=&quot;20&quot;&gt;&lt;ul&gt;&lt;li&gt;Instrusion&lt;br/&gt;  Detection System(IDS)&lt;/li&gt;&lt;/ul&gt;&lt;/td&gt;&lt;/tr&gt;&lt;tr style=&quot;height:15.0pt&quot; height=&quot;20&quot;&gt;&lt;td style=&quot;height:15.0pt;mso-ignore:colspan&quot; colspan=&quot;2&quot; height=&quot;20&quot;&gt;&lt;ul&gt;&lt;li&gt;Intrusion&lt;br/&gt;  Prevention System(IPS)&lt;/li&gt;&lt;/ul&gt;&lt;/td&gt;&lt;/tr&gt;&lt;tr style=&quot;height:15.0pt&quot; height=&quot;20&quot;&gt;&lt;td style=&quot;height:15.0pt;mso-ignore:colspan&quot; colspan=&quot;2&quot; height=&quot;20&quot;&gt;&lt;ul&gt;&lt;li&gt;Two-factor&lt;br/&gt;  Authentication(2FA)&lt;/li&gt;&lt;/ul&gt;&lt;/td&gt;&lt;/tr&gt;&lt;/tbody&gt;&lt;/table&gt;&lt;/td&gt;&lt;/tr&gt;&lt;/tbody&gt;&lt;/table&gt;&lt;/td&gt;&lt;/tr&gt;&lt;/tbody&gt;&lt;/table&gt;&lt;/h1&gt;" style="text;html=1;whiteSpace=wrap;overflow=hidden;rounded=0;" vertex="1" parent="1">
          <mxGeometry x="975" y="-1120" width="250" height="450" as="geometry" />
        </mxCell>
      </root>
    </mxGraphModel>
  </diagram>
</mxfile>
